<svg width="1024" height="1024" viewBox="0 0 1024 1024" fill="none" xmlns="http://www.w3.org/2000/svg">
<mask id="mask0_3327_46" style="mask-type:alpha" maskUnits="userSpaceOnUse" x="0" y="0" width="1024" height="1024">
<rect width="1024" height="1024" fill="#D9D9D9"/>
</mask>
<g mask="url(#mask0_3327_46)">
<rect width="1024" height="1024" rx="80" fill="url(#paint0_linear_3327_46)"/>
<circle opacity="0.8" cx="512" cy="520" r="250" fill="#8AFF80" fill-opacity="0.2"/>
<circle opacity="0.8" cx="512" cy="520" r="230" fill="#8AFF80" fill-opacity="0.4"/>
<circle cx="512" cy="520" r="210" fill="#8AFF80"/>
<path d="M816.943 447.877C807.804 447.877 799.807 444.998 792.953 439.241C786.352 433.233 783.052 425.097 783.052 414.833C783.052 404.569 786.352 396.559 792.953 390.801C799.807 384.793 807.804 381.789 816.943 381.789C826.082 381.789 833.952 384.793 840.552 390.801C847.406 396.559 850.833 404.569 850.833 414.833C850.833 425.097 847.406 433.233 840.552 439.241C833.952 444.998 826.082 447.877 816.943 447.877Z" fill="#8AFF80" fill-opacity="0.8"/>
<path d="M664.625 356.088C655.486 356.088 647.489 353.209 640.635 347.452C634.034 341.444 630.734 333.308 630.734 323.044C630.734 312.78 634.034 304.77 640.635 299.012C647.489 293.004 655.486 290 664.625 290C673.764 290 681.634 293.004 688.234 299.012C695.088 304.77 698.516 312.78 698.516 323.044C698.516 333.308 695.088 341.444 688.234 347.452C681.634 353.209 673.764 356.088 664.625 356.088Z" fill="#8AFF80"/>
<path d="M647.701 539.666C638.562 539.666 630.565 536.787 623.711 531.03C617.11 525.022 613.81 516.886 613.81 506.622C613.81 496.358 617.11 488.348 623.711 482.59C630.565 476.582 638.562 473.578 647.701 473.578C656.84 473.578 664.71 476.582 671.31 482.59C678.164 488.348 681.592 496.358 681.592 506.622C681.592 516.886 678.164 525.022 671.31 531.03C664.71 536.787 656.84 539.666 647.701 539.666Z" fill="#8AFF80"/>
<path d="M346.148 447.81C337.009 447.81 329.012 444.932 322.158 439.174C315.557 433.166 312.257 425.03 312.257 414.766C312.257 404.503 315.557 396.492 322.158 390.734C329.012 384.726 337.009 381.722 346.148 381.722C355.287 381.722 363.157 384.726 369.757 390.734C376.611 396.492 380.039 404.503 380.039 414.766C380.039 425.03 376.611 433.166 369.757 439.174C363.157 444.932 355.287 447.81 346.148 447.81Z" fill="#8AFF80"/>
<path d="M388.458 464.499C379.319 464.499 371.323 461.62 364.468 455.863C357.868 449.855 354.568 441.719 354.568 431.455C354.568 421.192 357.868 413.181 364.468 407.423C371.323 401.415 379.319 398.411 388.458 398.411C397.597 398.411 405.467 401.415 412.068 407.423C418.922 413.181 422.349 421.192 422.349 431.455C422.349 441.719 418.922 449.855 412.068 455.863C405.467 461.62 397.597 464.499 388.458 464.499Z" fill="#8AFF80"/>
<path d="M363.072 581.322C353.933 581.322 345.936 578.443 339.082 572.685C332.482 566.677 329.181 558.541 329.181 548.278C329.181 538.014 332.482 530.003 339.082 524.246C345.936 518.238 353.933 515.234 363.072 515.234C372.211 515.234 380.081 518.238 386.681 524.246C393.536 530.003 396.963 538.014 396.963 548.278C396.963 558.541 393.536 566.677 386.681 572.685C380.081 578.443 372.211 581.322 363.072 581.322Z" fill="#8AFF80"/>
<path d="M303.837 564.633C294.698 564.633 286.701 561.754 279.847 555.996C273.247 549.988 269.946 541.853 269.946 531.589C269.946 521.325 273.247 513.315 279.847 507.557C286.701 501.549 294.698 498.545 303.837 498.545C312.976 498.545 320.846 501.549 327.446 507.557C334.301 513.315 337.728 521.325 337.728 531.589C337.728 541.853 334.301 549.988 327.446 555.996C320.846 561.754 312.976 564.633 303.837 564.633Z" fill="#8AFF80"/>
<path d="M269.989 531.255C260.85 531.255 252.853 528.376 245.999 522.618C239.398 516.61 236.098 508.475 236.098 498.211C236.098 487.947 239.398 479.937 245.999 474.179C252.853 468.171 260.85 465.167 269.989 465.167C279.128 465.167 286.997 468.171 293.598 474.179C300.452 479.937 303.879 487.947 303.879 498.211C303.879 508.475 300.452 516.61 293.598 522.618C286.997 528.376 279.128 531.255 269.989 531.255Z" fill="#8AFF80"/>
<path d="M269.989 598.011C260.85 598.011 252.853 595.132 245.999 589.374C239.398 583.366 236.098 575.23 236.098 564.966C236.098 554.703 239.398 546.692 245.999 540.934C252.853 534.926 260.85 531.922 269.989 531.922C279.128 531.922 286.997 534.926 293.598 540.934C300.452 546.692 303.879 554.703 303.879 564.966C303.879 575.23 300.452 583.366 293.598 589.374C286.997 595.132 279.128 598.011 269.989 598.011Z" fill="#8AFF80"/>
<path d="M241.519 439.533C232.38 439.533 224.383 436.654 217.529 430.896C210.929 424.888 207.628 416.752 207.628 406.489C207.628 396.225 210.929 388.214 217.529 382.457C224.383 376.449 232.38 373.445 241.519 373.445C250.658 373.445 258.528 376.449 265.128 382.457C271.983 388.214 275.41 396.225 275.41 406.489C275.41 416.752 271.983 424.888 265.128 430.896C258.528 436.654 250.658 439.533 241.519 439.533Z" fill="#8AFF80"/>
<path d="M190.747 439.533C181.608 439.533 173.611 436.654 166.757 430.896C160.156 424.888 156.856 416.752 156.856 406.489C156.856 396.225 160.156 388.214 166.757 382.457C173.611 376.449 181.608 373.445 190.747 373.445C199.886 373.445 207.756 376.449 214.356 382.457C221.21 388.214 224.637 396.225 224.637 406.489C224.637 416.752 221.21 424.888 214.356 430.896C207.756 436.654 199.886 439.533 190.747 439.533Z" fill="#8AFF80" fill-opacity="0.55"/>
<path d="M901.564 673.178C892.425 673.178 884.428 670.299 877.574 664.541C870.974 658.533 867.673 650.397 867.673 640.133C867.673 629.87 870.974 621.859 877.574 616.101C884.428 610.093 892.425 607.089 901.564 607.089C910.703 607.089 918.573 610.093 925.173 616.101C932.028 621.859 935.455 629.87 935.455 640.133C935.455 650.397 932.028 658.533 925.173 664.541C918.573 670.299 910.703 673.178 901.564 673.178Z" fill="#8AFF80" fill-opacity="0.75"/>
<path d="M55.3527 497.944C46.2136 497.944 38.2169 495.065 31.3626 489.307C24.7621 483.299 21.4619 475.164 21.4619 464.9C21.4619 454.636 24.7621 446.625 31.3626 440.868C38.2169 434.86 46.2136 431.856 55.3527 431.856C64.4918 431.856 72.3615 434.86 78.962 440.868C85.8163 446.625 89.2434 454.636 89.2434 464.9C89.2434 475.164 85.8163 483.299 78.962 489.307C72.3615 495.065 64.4918 497.944 55.3527 497.944Z" fill="#8AFF80"/>
<path d="M363.072 706.489C353.933 706.489 345.936 703.61 339.082 697.852C332.482 691.844 329.181 683.708 329.181 673.445C329.181 663.181 332.482 655.17 339.082 649.413C345.936 643.405 353.933 640.401 363.072 640.401C372.211 640.401 380.081 643.405 386.681 649.413C393.536 655.17 396.963 663.181 396.963 673.445C396.963 683.708 393.536 691.844 386.681 697.852C380.081 703.61 372.211 706.489 363.072 706.489Z" fill="#8AFF80"/>
<path d="M46.8908 372.777C37.7517 372.777 29.755 369.898 22.9007 364.14C16.3002 358.132 13 349.997 13 339.733C13 329.469 16.3002 321.458 22.9007 315.701C29.755 309.693 37.7517 306.689 46.8908 306.689C56.0298 306.689 63.8996 309.693 70.5 315.701C77.3544 321.458 80.7815 329.469 80.7815 339.733C80.7815 349.997 77.3544 358.132 70.5 364.14C63.8996 369.898 56.0298 372.777 46.8908 372.777Z" fill="#8AFF80" fill-opacity="0.5"/>
<path d="M303.837 689.8C294.698 689.8 286.701 686.921 279.847 681.163C273.247 675.155 269.946 667.019 269.946 656.756C269.946 646.492 273.247 638.481 279.847 632.724C286.701 626.716 294.698 623.712 303.837 623.712C312.976 623.712 320.846 626.716 327.446 632.724C334.301 638.481 337.728 646.492 337.728 656.756C337.728 667.019 334.301 675.155 327.446 681.163C320.846 686.921 312.976 689.8 303.837 689.8Z" fill="#8AFF80"/>
<path d="M320.761 748.211C311.622 748.211 303.626 745.332 296.771 739.575C290.171 733.567 286.871 725.431 286.871 715.167C286.871 704.903 290.171 696.893 296.771 691.135C303.626 685.127 311.622 682.123 320.761 682.123C329.9 682.123 337.77 685.127 344.371 691.135C351.225 696.893 354.652 704.903 354.652 715.167C354.652 725.431 351.225 733.567 344.371 739.575C337.77 745.332 329.9 748.211 320.761 748.211Z" fill="#8AFF80"/>
<path d="M681.549 790C672.41 790 664.413 787.121 657.559 781.363C650.959 775.355 647.658 767.22 647.658 756.956C647.658 746.692 650.959 738.682 657.559 732.924C664.413 726.916 672.41 723.912 681.549 723.912C690.688 723.912 698.558 726.916 705.159 732.924C712.013 738.682 715.44 746.692 715.44 756.956C715.44 767.22 712.013 775.355 705.159 781.363C698.558 787.121 690.688 790 681.549 790Z" fill="#8AFF80" fill-opacity="0.6"/>
<path d="M622.314 698.211C613.175 698.211 605.178 695.332 598.324 689.575C591.724 683.567 588.423 675.431 588.423 665.167C588.423 654.903 591.724 646.893 598.324 641.135C605.178 635.127 613.175 632.123 622.314 632.123C631.453 632.123 639.323 635.127 645.923 641.135C652.778 646.893 656.205 654.903 656.205 665.167C656.205 675.431 652.778 683.567 645.923 689.575C639.323 695.332 631.453 698.211 622.314 698.211Z" fill="#8AFF80"/>
<path d="M757.708 514.633C748.569 514.633 740.572 511.754 733.718 505.996C727.117 499.988 723.817 491.853 723.817 481.589C723.817 471.325 727.117 463.315 733.718 457.557C740.572 451.549 748.569 448.545 757.708 448.545C766.847 448.545 774.717 451.549 781.317 457.557C788.172 463.315 791.599 471.325 791.599 481.589C791.599 491.853 788.172 499.988 781.317 505.996C774.717 511.754 766.847 514.633 757.708 514.633Z" fill="#8AFF80"/>
<path d="M977.723 456.222C968.584 456.222 960.587 453.343 953.733 447.585C947.132 441.577 943.832 433.441 943.832 423.178C943.832 412.914 947.132 404.903 953.733 399.146C960.587 393.138 968.584 390.134 977.723 390.134C986.862 390.134 994.732 393.138 1001.33 399.146C1008.19 404.903 1011.61 412.914 1011.61 423.178C1011.61 433.441 1008.19 441.577 1001.33 447.585C994.732 453.343 986.862 456.222 977.723 456.222Z" fill="#8AFF80"/>
<path d="M32.7109 676V472.8C42.8443 469.867 55.9109 467.2 71.9109 464.8C87.9109 462.133 104.711 460.8 122.311 460.8C146.311 460.8 164.978 464.933 178.311 473.2C191.644 481.2 200.978 492.4 206.311 506.8C211.644 521.2 214.311 538 214.311 557.2V676H154.711V564.4C154.711 551.6 153.644 541.333 151.511 533.6C149.378 525.867 145.644 520.267 140.311 516.8C135.244 513.333 128.044 511.6 118.711 511.6C114.444 511.6 109.911 511.867 105.111 512.4C100.311 512.667 96.0443 513.067 92.3109 513.6V676H32.7109Z" fill="#FAF5FF"/>
<path d="M296.258 681.6C277.591 681.6 261.991 680 249.458 676.8C237.191 673.6 228.658 670.933 223.858 668.8L233.858 620.4C243.991 624.4 254.391 627.6 265.058 630C275.724 632.133 286.258 633.2 296.658 633.2C307.591 633.2 315.324 632.133 319.858 630C324.391 627.867 326.658 623.733 326.658 617.6C326.658 614.4 325.324 611.6 322.658 609.2C319.991 606.533 315.991 603.867 310.658 601.2C305.591 598.533 299.058 595.733 291.058 592.8C278.791 588 267.991 582.933 258.658 577.6C249.324 572.267 242.124 565.467 237.058 557.2C231.991 548.667 229.458 537.6 229.458 524C229.458 510.667 232.791 499.333 239.458 490C246.124 480.4 255.591 473.067 267.858 468C280.124 462.667 294.791 460 311.858 460C324.658 460 336.924 461.2 348.658 463.6C360.391 465.733 369.724 468.133 376.658 470.8L366.258 517.2C359.324 514.8 351.724 512.667 343.458 510.8C335.458 508.933 326.391 508 316.258 508C306.924 508 299.858 509.333 295.058 512C290.524 514.4 288.258 518.267 288.258 523.6C288.258 526.533 289.058 529.333 290.658 532C292.258 534.4 295.324 536.8 299.858 539.2C304.391 541.6 311.058 544.4 319.858 547.6C337.458 554 350.924 560.4 360.258 566.8C369.858 573.2 376.524 580.533 380.258 588.8C383.991 596.8 385.858 606.667 385.858 618.4C385.858 632.267 382.391 643.867 375.458 653.2C368.524 662.533 358.391 669.6 345.058 674.4C331.724 679.2 315.458 681.6 296.258 681.6ZM398.398 676V472.8C408.798 469.867 421.865 467.2 437.598 464.8C453.598 462.133 469.332 460.8 484.798 460.8C499.998 460.8 512.265 462.8 521.598 466.8C531.198 470.533 539.065 475.067 545.198 480.4C551.065 476.133 557.332 472.667 563.998 470C570.932 467.067 577.998 464.8 585.198 463.2C592.398 461.6 599.065 460.8 605.198 460.8C627.598 460.8 644.798 464.933 656.798 473.2C669.065 481.2 677.465 492.4 681.998 506.8C686.798 521.2 689.198 538 689.198 557.2V676H629.598V564.4C629.598 551.6 628.532 541.333 626.398 533.6C624.265 525.867 620.798 520.267 615.998 516.8C611.198 513.333 604.798 511.6 596.798 511.6C594.665 511.6 591.865 512 588.398 512.8C585.198 513.333 581.865 514.267 578.398 515.6C574.932 516.933 571.865 518.4 569.198 520C571.065 526.133 572.265 532.667 572.798 539.6C573.332 546.267 573.598 553.467 573.598 561.2V676H513.998V564.4C513.998 551.6 512.932 541.333 510.798 533.6C508.665 525.867 505.198 520.267 500.398 516.8C495.598 513.333 489.198 511.6 481.198 511.6C478.798 511.6 476.265 511.733 473.598 512C470.932 512 468.265 512.133 465.598 512.4C463.198 512.667 460.665 513.067 457.998 513.6V676H398.398ZM711.32 750V472.8C718.52 470.667 726.92 468.667 736.52 466.8C746.387 464.933 756.52 463.467 766.92 462.4C777.587 461.333 787.72 460.8 797.32 460.8C820.52 460.8 840.254 465.333 856.52 474.4C872.787 483.2 885.187 495.867 893.72 512.4C902.52 528.933 906.92 548.4 906.92 570.8C906.92 592.4 903.32 611.467 896.12 628C889.187 644.267 878.92 657.067 865.32 666.4C851.72 675.467 834.92 680 814.92 680C806.654 680 798.92 679.2 791.72 677.6C784.52 676 777.587 673.733 770.92 670.8V750H711.32ZM803.72 629.6C810.92 629.6 817.054 628.4 822.12 626C827.454 623.6 831.854 620 835.32 615.2C839.054 610.4 841.72 604.533 843.32 597.6C845.187 590.4 846.12 582 846.12 572.4C846.12 560.133 844.254 549.467 840.52 540.4C836.787 531.333 831.32 524.267 824.12 519.2C816.92 514.133 807.854 511.6 796.92 511.6C791.587 511.6 786.654 511.867 782.12 512.4C777.587 512.667 773.854 513.067 770.92 513.6V621.2C774.654 623.6 779.454 625.6 785.32 627.2C791.454 628.8 797.587 629.6 803.72 629.6ZM1004.73 680C981.793 679.467 964.193 676.267 951.927 670.4C939.927 664.533 931.66 656.267 927.127 645.6C922.86 634.667 920.727 621.733 920.727 606.8V375.2L980.327 365.6V594.8C980.327 605.467 982.193 613.867 985.927 620C989.927 626.133 998.993 629.733 1013.13 630.8L1004.73 680Z" fill="#5F00AD"/>
</g>
<defs>
<linearGradient id="paint0_linear_3327_46" x1="512" y1="0" x2="512" y2="1024" gradientUnits="userSpaceOnUse">
<stop stop-color="#5D5FEF" stop-opacity="0.8"/>
<stop offset="1" stop-color="#8AFF80"/>
</linearGradient>
</defs>
</svg>
