<svg width="1024" height="1024" viewBox="0 0 1024 1024" fill="none" xmlns="http://www.w3.org/2000/svg">
<mask id="mask0_3327_46" style="mask-type:alpha" maskUnits="userSpaceOnUse" x="0" y="0" width="1024" height="1024">
<rect width="1024" height="1024" fill="#D9D9D9"/>
</mask>
<g mask="url(#mask0_3327_46)">
<rect width="1024" height="1024" rx="80" fill="url(#paint0_linear_3327_46)"/>
<path d="M-108 656L112.182 562.5L199.364 740L286.545 527L392 832L456 248L584 780L672 348L722.454 740L856 292L896.818 740L1112 527" stroke="#8AFF80" stroke-linejoin="round"/>
<path d="M-36 543.5L93.0909 655.833L172 404L300 712L360 424L465.455 599.667L558.545 375L651.636 655.833L744.727 375L860 796L930.909 375L1076 752" stroke="#8AFF80" stroke-width="10" stroke-linejoin="round"/>
<path d="M-152 608L92 493.5L228 608L320.545 452L398.727 701L476.909 535L555.091 701L633.273 493.5L732 644L867.818 452V644L1076 452" stroke="#8AFF80" stroke-width="10" stroke-linejoin="round"/>
<path d="M822.406 460.403C813.249 460.403 805.238 457.478 798.371 451.629C791.758 445.524 788.451 437.258 788.451 426.83C788.451 416.403 791.758 408.264 798.371 402.414C805.238 396.31 813.249 393.258 822.406 393.258C831.562 393.258 839.446 396.31 846.059 402.414C852.926 408.264 856.36 416.403 856.36 426.83C856.36 437.258 852.926 445.524 846.059 451.629C839.446 457.478 831.562 460.403 822.406 460.403Z" fill="#8AFF80" fill-opacity="0.8"/>
<path d="M669.802 367.146C660.646 367.146 652.634 364.221 645.767 358.371C639.154 352.267 635.848 344.001 635.848 333.573C635.848 323.145 639.154 315.006 645.767 309.156C652.634 303.052 660.646 300 669.802 300C678.958 300 686.843 303.052 693.456 309.156C700.323 315.006 703.756 323.145 703.756 333.573C703.756 344.001 700.323 352.267 693.456 358.371C686.843 364.221 678.958 367.146 669.802 367.146Z" fill="#8AFF80"/>
<path d="M652.846 553.661C643.69 553.661 635.678 550.736 628.811 544.886C622.198 538.782 618.892 530.516 618.892 520.088C618.892 509.66 622.198 501.521 628.811 495.671C635.678 489.567 643.69 486.515 652.846 486.515C662.003 486.515 669.887 489.567 676.5 495.671C683.367 501.521 686.801 509.66 686.801 520.088C686.801 530.516 683.367 538.782 676.5 544.886C669.887 550.736 662.003 553.661 652.846 553.661Z" fill="#8AFF80"/>
<path d="M440.897 409.535C431.741 409.535 423.729 406.61 416.862 400.761C410.249 394.656 406.943 386.39 406.943 375.963C406.943 365.535 410.249 357.396 416.862 351.546C423.729 345.442 431.741 342.39 440.897 342.39C450.053 342.39 457.938 345.442 464.55 351.546C471.418 357.396 474.851 365.535 474.851 375.963C474.851 386.39 471.418 394.656 464.55 400.761C457.938 406.61 450.053 409.535 440.897 409.535Z" fill="#8AFF80"/>
<path d="M483.287 426.491C474.131 426.491 466.119 423.566 459.252 417.717C452.639 411.612 449.333 403.346 449.333 392.918C449.333 382.491 452.639 374.352 459.252 368.502C466.119 362.398 474.131 359.346 483.287 359.346C492.443 359.346 500.328 362.398 506.94 368.502C513.807 374.352 517.241 382.491 517.241 392.918C517.241 403.346 513.807 411.612 506.94 417.717C500.328 423.566 492.443 426.491 483.287 426.491Z" fill="#8AFF80"/>
<path d="M457.853 545.183C448.697 545.183 440.685 542.258 433.818 536.408C427.205 530.304 423.899 522.038 423.899 511.61C423.899 501.182 427.205 493.043 433.818 487.194C440.685 481.089 448.697 478.037 457.853 478.037C467.009 478.037 474.894 481.089 481.507 487.194C488.374 493.043 491.807 501.182 491.807 511.61C491.807 522.038 488.374 530.304 481.507 536.408C474.894 542.258 467.009 545.183 457.853 545.183Z" fill="#8AFF80"/>
<path d="M398.507 528.227C389.351 528.227 381.339 525.302 374.472 519.452C367.859 513.348 364.553 505.082 364.553 494.654C364.553 484.226 367.859 476.088 374.472 470.238C381.339 464.134 389.351 461.082 398.507 461.082C407.663 461.082 415.548 464.134 422.161 470.238C429.028 476.088 432.461 484.226 432.461 494.654C432.461 505.082 429.028 513.348 422.161 519.452C415.548 525.302 407.663 528.227 398.507 528.227Z" fill="#8AFF80"/>
<path d="M364.595 494.315C355.439 494.315 347.427 491.39 340.56 485.54C333.947 479.436 330.641 471.17 330.641 460.742C330.641 450.314 333.947 442.176 340.56 436.326C347.427 430.222 355.439 427.17 364.595 427.17C373.751 427.17 381.636 430.222 388.249 436.326C395.116 442.176 398.549 450.314 398.549 460.742C398.549 471.17 395.116 479.436 388.249 485.54C381.636 491.39 373.751 494.315 364.595 494.315Z" fill="#8AFF80"/>
<path d="M364.595 562.139C355.439 562.139 347.427 559.214 340.56 553.364C333.947 547.26 330.641 538.994 330.641 528.566C330.641 518.138 333.947 509.999 340.56 504.149C347.427 498.045 355.439 494.993 364.595 494.993C373.751 494.993 381.636 498.045 388.249 504.149C395.116 509.999 398.549 518.138 398.549 528.566C398.549 538.994 395.116 547.26 388.249 553.364C381.636 559.214 373.751 562.139 364.595 562.139Z" fill="#8AFF80"/>
<path d="M245.903 451.925C236.747 451.925 228.736 449 221.868 443.15C215.256 437.046 211.949 428.78 211.949 418.352C211.949 407.925 215.256 399.786 221.868 393.936C228.736 387.832 236.747 384.78 245.903 384.78C255.06 384.78 262.944 387.832 269.557 393.936C276.424 399.786 279.858 407.925 279.858 418.352C279.858 428.78 276.424 437.046 269.557 443.15C262.944 449 255.06 451.925 245.903 451.925Z" fill="#8AFF80"/>
<path d="M195.036 451.925C185.88 451.925 177.868 449 171.001 443.15C164.388 437.046 161.082 428.78 161.082 418.352C161.082 407.925 164.388 399.786 171.001 393.936C177.868 387.832 185.88 384.78 195.036 384.78C204.192 384.78 212.077 387.832 218.689 393.936C225.557 399.786 228.99 407.925 228.99 418.352C228.99 428.78 225.557 437.046 218.689 443.15C212.077 449 204.192 451.925 195.036 451.925Z" fill="#8AFF80" fill-opacity="0.55"/>
<path d="M907.185 689.308C898.029 689.308 890.018 686.383 883.15 680.534C876.538 674.43 873.231 666.164 873.231 655.736C873.231 645.308 876.538 637.169 883.15 631.319C890.018 625.215 898.029 622.163 907.185 622.163C916.342 622.163 924.226 625.215 930.839 631.319C937.706 637.169 941.14 645.308 941.14 655.736C941.14 666.164 937.706 674.43 930.839 680.534C924.226 686.383 916.342 689.308 907.185 689.308Z" fill="#8AFF80" fill-opacity="0.75"/>
<path d="M59.3881 511.271C50.2319 511.271 42.2202 508.346 35.3531 502.496C28.7402 496.392 25.4338 488.126 25.4338 477.698C25.4338 467.27 28.7402 459.131 35.3531 453.282C42.2202 447.178 50.2319 444.125 59.3881 444.125C68.5443 444.125 76.4288 447.178 83.0417 453.282C89.9088 459.131 93.3424 467.27 93.3424 477.698C93.3424 488.126 89.9088 496.392 83.0417 502.496C76.4288 508.346 68.5443 511.271 59.3881 511.271Z" fill="#8AFF80"/>
<path d="M33.9543 629.963C24.7981 629.963 16.7864 627.038 9.91923 621.188C3.30641 615.084 0 606.818 0 596.39C0 585.962 3.30641 577.823 9.91923 571.973C16.7864 565.869 24.7981 562.817 33.9543 562.817C43.1105 562.817 50.995 565.869 57.6078 571.973C64.475 577.823 67.9086 585.962 67.9086 596.39C67.9086 606.818 64.475 615.084 57.6078 621.188C50.995 627.038 43.1105 629.963 33.9543 629.963Z" fill="#8AFF80"/>
<path d="M457.853 672.353C448.697 672.353 440.685 669.428 433.818 663.578C427.205 657.474 423.899 649.208 423.899 638.78C423.899 628.352 427.205 620.213 433.818 614.363C440.685 608.259 448.697 605.207 457.853 605.207C467.009 605.207 474.894 608.259 481.507 614.363C488.374 620.213 491.807 628.352 491.807 638.78C491.807 649.208 488.374 657.474 481.507 663.578C474.894 669.428 467.009 672.353 457.853 672.353Z" fill="#8AFF80"/>
<path d="M50.9103 384.101C41.7541 384.101 33.7424 381.176 26.8753 375.327C20.2625 369.223 16.9561 360.956 16.9561 350.529C16.9561 340.101 20.2625 331.962 26.8753 326.112C33.7424 320.008 41.7541 316.956 50.9103 316.956C60.0665 316.956 67.9511 320.008 74.5639 326.112C81.431 331.962 84.8646 340.101 84.8646 350.529C84.8646 360.956 81.431 369.223 74.5639 375.327C67.9511 381.176 60.0665 384.101 50.9103 384.101Z" fill="#8AFF80" fill-opacity="0.5"/>
<path d="M398.507 655.397C389.351 655.397 381.339 652.472 374.472 646.622C367.859 640.518 364.553 632.252 364.553 621.824C364.553 611.396 367.859 603.257 374.472 597.407C381.339 591.303 389.351 588.251 398.507 588.251C407.663 588.251 415.548 591.303 422.161 597.407C429.028 603.257 432.461 611.396 432.461 621.824C432.461 632.252 429.028 640.518 422.161 646.622C415.548 652.472 407.663 655.397 398.507 655.397Z" fill="#8AFF80"/>
<path d="M415.463 714.742C406.307 714.742 398.295 711.818 391.428 705.968C384.815 699.864 381.509 691.598 381.509 681.17C381.509 670.742 384.815 662.603 391.428 656.753C398.295 650.649 406.307 647.597 415.463 647.597C424.619 647.597 432.504 650.649 439.117 656.753C445.984 662.603 449.417 670.742 449.417 681.17C449.417 691.598 445.984 699.864 439.117 705.968C432.504 711.818 424.619 714.742 415.463 714.742Z" fill="#8AFF80"/>
<path d="M686.758 808C677.602 808 669.59 805.075 662.723 799.225C656.11 793.121 652.804 784.855 652.804 774.427C652.804 763.999 656.11 755.86 662.723 750.011C669.59 743.907 677.602 740.854 686.758 740.854C695.914 740.854 703.799 743.907 710.412 750.011C717.279 755.86 720.713 763.999 720.713 774.427C720.713 784.855 717.279 793.121 710.412 799.225C703.799 805.075 695.914 808 686.758 808Z" fill="#8AFF80" fill-opacity="0.6"/>
<path d="M949.575 579.095C940.419 579.095 932.407 576.17 925.54 570.32C918.928 564.216 915.621 555.95 915.621 545.522C915.621 535.094 918.928 526.955 925.54 521.106C932.407 515.001 940.419 511.949 949.575 511.949C958.732 511.949 966.616 515.001 973.229 521.106C980.096 526.955 983.53 535.094 983.53 545.522C983.53 555.95 980.096 564.216 973.229 570.32C966.616 576.17 958.732 579.095 949.575 579.095Z" fill="#8AFF80"/>
<path d="M991.965 596.051C982.809 596.051 974.797 593.126 967.93 587.276C961.317 581.172 958.011 572.906 958.011 562.478C958.011 552.05 961.317 543.911 967.93 538.061C974.797 531.957 982.809 528.905 991.965 528.905C1001.12 528.905 1009.01 531.957 1015.62 538.061C1022.49 543.911 1025.92 552.05 1025.92 562.478C1025.92 572.906 1022.49 581.172 1015.62 587.276C1009.01 593.126 1001.12 596.051 991.965 596.051Z" fill="#8AFF80"/>
<path d="M627.412 714.742C618.256 714.742 610.244 711.818 603.377 705.968C596.764 699.864 593.458 691.598 593.458 681.17C593.458 670.742 596.764 662.603 603.377 656.753C610.244 650.649 618.256 647.597 627.412 647.597C636.568 647.597 644.453 650.649 651.066 656.753C657.933 662.603 661.367 670.742 661.367 681.17C661.367 691.598 657.933 699.864 651.066 705.968C644.453 711.818 636.568 714.742 627.412 714.742Z" fill="#8AFF80"/>
<path d="M763.06 528.227C753.904 528.227 745.892 525.302 739.025 519.452C732.412 513.348 729.105 505.082 729.105 494.654C729.105 484.226 732.412 476.088 739.025 470.238C745.892 464.134 753.904 461.082 763.06 461.082C772.216 461.082 780.1 464.134 786.713 470.238C793.58 476.088 797.014 484.226 797.014 494.654C797.014 505.082 793.58 513.348 786.713 519.452C780.1 525.302 772.216 528.227 763.06 528.227Z" fill="#8AFF80"/>
<path d="M983.487 468.881C974.331 468.881 966.319 465.956 959.452 460.107C952.839 454.002 949.533 445.736 949.533 435.308C949.533 424.881 952.839 416.742 959.452 410.892C966.319 404.788 974.331 401.736 983.487 401.736C992.643 401.736 1000.53 404.788 1007.14 410.892C1014.01 416.742 1017.44 424.881 1017.44 435.308C1017.44 445.736 1014.01 454.002 1007.14 460.107C1000.53 465.956 992.643 468.881 983.487 468.881Z" fill="#8AFF80"/>
<path d="M34.7109 676V472.8C44.8443 469.867 57.9109 467.2 73.9109 464.8C89.9109 462.133 106.711 460.8 124.311 460.8C148.311 460.8 166.978 464.933 180.311 473.2C193.644 481.2 202.978 492.4 208.311 506.8C213.644 521.2 216.311 538 216.311 557.2V676H156.711V564.4C156.711 551.6 155.644 541.333 153.511 533.6C151.378 525.867 147.644 520.267 142.311 516.8C137.244 513.333 130.044 511.6 120.711 511.6C116.444 511.6 111.911 511.867 107.111 512.4C102.311 512.667 98.0443 513.067 94.3109 513.6V676H34.7109Z" fill="#8AFF80"/>
<path d="M298.258 681.6C279.591 681.6 263.991 680 251.458 676.8C239.191 673.6 230.658 670.933 225.858 668.8L235.858 620.4C245.991 624.4 256.391 627.6 267.058 630C277.724 632.133 288.258 633.2 298.658 633.2C309.591 633.2 317.324 632.133 321.858 630C326.391 627.867 328.658 623.733 328.658 617.6C328.658 614.4 327.324 611.6 324.658 609.2C321.991 606.533 317.991 603.867 312.658 601.2C307.591 598.533 301.058 595.733 293.058 592.8C280.791 588 269.991 582.933 260.658 577.6C251.324 572.267 244.124 565.467 239.058 557.2C233.991 548.667 231.458 537.6 231.458 524C231.458 510.667 234.791 499.333 241.458 490C248.124 480.4 257.591 473.067 269.858 468C282.124 462.667 296.791 460 313.858 460C326.658 460 338.924 461.2 350.658 463.6C362.391 465.733 371.724 468.133 378.658 470.8L368.258 517.2C361.324 514.8 353.724 512.667 345.458 510.8C337.458 508.933 328.391 508 318.258 508C308.924 508 301.858 509.333 297.058 512C292.524 514.4 290.258 518.267 290.258 523.6C290.258 526.533 291.058 529.333 292.658 532C294.258 534.4 297.324 536.8 301.858 539.2C306.391 541.6 313.058 544.4 321.858 547.6C339.458 554 352.924 560.4 362.258 566.8C371.858 573.2 378.524 580.533 382.258 588.8C385.991 596.8 387.858 606.667 387.858 618.4C387.858 632.267 384.391 643.867 377.458 653.2C370.524 662.533 360.391 669.6 347.058 674.4C333.724 679.2 317.458 681.6 298.258 681.6ZM400.398 676V472.8C410.798 469.867 423.865 467.2 439.598 464.8C455.598 462.133 471.332 460.8 486.798 460.8C501.998 460.8 514.265 462.8 523.598 466.8C533.198 470.533 541.065 475.067 547.198 480.4C553.065 476.133 559.332 472.667 565.998 470C572.932 467.067 579.998 464.8 587.198 463.2C594.398 461.6 601.065 460.8 607.198 460.8C629.598 460.8 646.798 464.933 658.798 473.2C671.065 481.2 679.465 492.4 683.998 506.8C688.798 521.2 691.198 538 691.198 557.2V676H631.598V564.4C631.598 551.6 630.532 541.333 628.398 533.6C626.265 525.867 622.798 520.267 617.998 516.8C613.198 513.333 606.798 511.6 598.798 511.6C596.665 511.6 593.865 512 590.398 512.8C587.198 513.333 583.865 514.267 580.398 515.6C576.932 516.933 573.865 518.4 571.198 520C573.065 526.133 574.265 532.667 574.798 539.6C575.332 546.267 575.598 553.467 575.598 561.2V676H515.998V564.4C515.998 551.6 514.932 541.333 512.798 533.6C510.665 525.867 507.198 520.267 502.398 516.8C497.598 513.333 491.198 511.6 483.198 511.6C480.798 511.6 478.265 511.733 475.598 512C472.932 512 470.265 512.133 467.598 512.4C465.198 512.667 462.665 513.067 459.998 513.6V676H400.398ZM713.32 750V472.8C720.52 470.667 728.92 468.667 738.52 466.8C748.387 464.933 758.52 463.467 768.92 462.4C779.587 461.333 789.72 460.8 799.32 460.8C822.52 460.8 842.254 465.333 858.52 474.4C874.787 483.2 887.187 495.867 895.72 512.4C904.52 528.933 908.92 548.4 908.92 570.8C908.92 592.4 905.32 611.467 898.12 628C891.187 644.267 880.92 657.067 867.32 666.4C853.72 675.467 836.92 680 816.92 680C808.654 680 800.92 679.2 793.72 677.6C786.52 676 779.587 673.733 772.92 670.8V750H713.32ZM805.72 629.6C812.92 629.6 819.054 628.4 824.12 626C829.454 623.6 833.854 620 837.32 615.2C841.054 610.4 843.72 604.533 845.32 597.6C847.187 590.4 848.12 582 848.12 572.4C848.12 560.133 846.254 549.467 842.52 540.4C838.787 531.333 833.32 524.267 826.12 519.2C818.92 514.133 809.854 511.6 798.92 511.6C793.587 511.6 788.654 511.867 784.12 512.4C779.587 512.667 775.854 513.067 772.92 513.6V621.2C776.654 623.6 781.454 625.6 787.32 627.2C793.454 628.8 799.587 629.6 805.72 629.6ZM1006.73 680C983.793 679.467 966.193 676.267 953.927 670.4C941.927 664.533 933.66 656.267 929.127 645.6C924.86 634.667 922.727 621.733 922.727 606.8V375.2L982.327 365.6V594.8C982.327 605.467 984.193 613.867 987.927 620C991.927 626.133 1000.99 629.733 1015.13 630.8L1006.73 680Z" fill="white"/>
</g>
<defs>
<linearGradient id="paint0_linear_3327_46" x1="512" y1="0" x2="512" y2="1024" gradientUnits="userSpaceOnUse">
<stop offset="0.221154" stop-color="#1E1E2E"/>
<stop offset="1" stop-color="#0B0B10"/>
</linearGradient>
</defs>
</svg>
