<svg width="1024" height="1024" viewBox="0 0 1024 1024" fill="none" xmlns="http://www.w3.org/2000/svg">
<mask id="mask0_3327_46" style="mask-type:alpha" maskUnits="userSpaceOnUse" x="0" y="0" width="1024" height="1024">
<rect width="1024" height="1024" fill="#D9D9D9"/>
<rect x="20" y="20" width="984" height="984" stroke="#C2FFBD" stroke-opacity="0.8" stroke-width="40"/>
</mask>
<g mask="url(#mask0_3327_46)">
<rect width="1024" height="1024" rx="80" fill="url(#paint0_linear_3327_46)"/>
<mask id="path-4-outside-1_3327_46" maskUnits="userSpaceOnUse" x="-27" y="250" width="1079" height="580" fill="black">
<rect fill="white" x="-27" y="250" width="1079" height="580"/>
<path d="M816.943 447.877C807.804 447.877 799.807 444.998 792.953 439.241C786.352 433.233 783.052 425.097 783.052 414.833C783.052 404.569 786.352 396.559 792.953 390.801C799.807 384.793 807.804 381.789 816.943 381.789C826.082 381.789 833.952 384.793 840.552 390.801C847.406 396.559 850.833 404.569 850.833 414.833C850.833 425.097 847.406 433.233 840.552 439.241C833.952 444.998 826.082 447.877 816.943 447.877Z"/>
<path d="M664.625 356.088C655.486 356.088 647.489 353.209 640.635 347.452C634.034 341.444 630.734 333.308 630.734 323.044C630.734 312.78 634.034 304.77 640.635 299.012C647.489 293.004 655.486 290 664.625 290C673.764 290 681.634 293.004 688.234 299.012C695.088 304.77 698.516 312.78 698.516 323.044C698.516 333.308 695.088 341.444 688.234 347.452C681.634 353.209 673.764 356.088 664.625 356.088Z"/>
<path d="M647.701 539.666C638.562 539.666 630.565 536.787 623.711 531.03C617.11 525.022 613.81 516.886 613.81 506.622C613.81 496.358 617.11 488.348 623.711 482.59C630.565 476.582 638.562 473.578 647.701 473.578C656.84 473.578 664.71 476.582 671.31 482.59C678.164 488.348 681.592 496.358 681.592 506.622C681.592 516.886 678.164 525.022 671.31 531.03C664.71 536.787 656.84 539.666 647.701 539.666Z"/>
<path d="M346.148 447.81C337.009 447.81 329.012 444.932 322.158 439.174C315.557 433.166 312.257 425.03 312.257 414.766C312.257 404.503 315.557 396.492 322.158 390.734C329.012 384.726 337.009 381.722 346.148 381.722C355.287 381.722 363.157 384.726 369.757 390.734C376.611 396.492 380.039 404.503 380.039 414.766C380.039 425.03 376.611 433.166 369.757 439.174C363.157 444.932 355.287 447.81 346.148 447.81Z"/>
<path d="M388.458 464.499C379.319 464.499 371.323 461.62 364.468 455.863C357.868 449.855 354.568 441.719 354.568 431.455C354.568 421.192 357.868 413.181 364.468 407.423C371.323 401.415 379.319 398.411 388.458 398.411C397.597 398.411 405.467 401.415 412.068 407.423C418.922 413.181 422.349 421.192 422.349 431.455C422.349 441.719 418.922 449.855 412.068 455.863C405.467 461.62 397.597 464.499 388.458 464.499Z"/>
<path d="M363.072 581.322C353.933 581.322 345.936 578.443 339.082 572.685C332.482 566.677 329.181 558.541 329.181 548.278C329.181 538.014 332.482 530.003 339.082 524.246C345.936 518.238 353.933 515.234 363.072 515.234C372.211 515.234 380.081 518.238 386.681 524.246C393.536 530.003 396.963 538.014 396.963 548.278C396.963 558.541 393.536 566.677 386.681 572.685C380.081 578.443 372.211 581.322 363.072 581.322Z"/>
<path d="M303.837 564.633C294.698 564.633 286.701 561.754 279.847 555.996C273.247 549.988 269.946 541.853 269.946 531.589C269.946 521.325 273.247 513.315 279.847 507.557C286.701 501.549 294.698 498.545 303.837 498.545C312.976 498.545 320.846 501.549 327.446 507.557C334.301 513.315 337.728 521.325 337.728 531.589C337.728 541.853 334.301 549.988 327.446 555.996C320.846 561.754 312.976 564.633 303.837 564.633Z"/>
<path d="M269.989 531.255C260.85 531.255 252.853 528.376 245.999 522.618C239.398 516.61 236.098 508.475 236.098 498.211C236.098 487.947 239.398 479.937 245.999 474.179C252.853 468.171 260.85 465.167 269.989 465.167C279.128 465.167 286.997 468.171 293.598 474.179C300.452 479.937 303.879 487.947 303.879 498.211C303.879 508.475 300.452 516.61 293.598 522.618C286.997 528.376 279.128 531.255 269.989 531.255Z"/>
<path d="M269.989 598.011C260.85 598.011 252.853 595.132 245.999 589.374C239.398 583.366 236.098 575.23 236.098 564.966C236.098 554.703 239.398 546.692 245.999 540.934C252.853 534.926 260.85 531.922 269.989 531.922C279.128 531.922 286.997 534.926 293.598 540.934C300.452 546.692 303.879 554.703 303.879 564.966C303.879 575.23 300.452 583.366 293.598 589.374C286.997 595.132 279.128 598.011 269.989 598.011Z"/>
<path d="M241.519 439.533C232.38 439.533 224.383 436.654 217.529 430.896C210.929 424.888 207.628 416.752 207.628 406.489C207.628 396.225 210.929 388.214 217.529 382.457C224.383 376.449 232.38 373.445 241.519 373.445C250.658 373.445 258.528 376.449 265.128 382.457C271.983 388.214 275.41 396.225 275.41 406.489C275.41 416.752 271.983 424.888 265.128 430.896C258.528 436.654 250.658 439.533 241.519 439.533Z"/>
<path d="M190.747 439.533C181.608 439.533 173.611 436.654 166.757 430.896C160.156 424.888 156.856 416.752 156.856 406.489C156.856 396.225 160.156 388.214 166.757 382.457C173.611 376.449 181.608 373.445 190.747 373.445C199.886 373.445 207.756 376.449 214.356 382.457C221.21 388.214 224.637 396.225 224.637 406.489C224.637 416.752 221.21 424.888 214.356 430.896C207.756 436.654 199.886 439.533 190.747 439.533Z"/>
<path d="M901.564 673.178C892.425 673.178 884.428 670.299 877.574 664.541C870.974 658.533 867.673 650.397 867.673 640.133C867.673 629.87 870.974 621.859 877.574 616.101C884.428 610.093 892.425 607.089 901.564 607.089C910.703 607.089 918.573 610.093 925.173 616.101C932.028 621.859 935.455 629.87 935.455 640.133C935.455 650.397 932.028 658.533 925.173 664.541C918.573 670.299 910.703 673.178 901.564 673.178Z"/>
<path d="M55.3527 497.944C46.2136 497.944 38.2169 495.065 31.3626 489.307C24.7621 483.299 21.4619 475.164 21.4619 464.9C21.4619 454.636 24.7621 446.625 31.3626 440.868C38.2169 434.86 46.2136 431.856 55.3527 431.856C64.4918 431.856 72.3615 434.86 78.962 440.868C85.8163 446.625 89.2434 454.636 89.2434 464.9C89.2434 475.164 85.8163 483.299 78.962 489.307C72.3615 495.065 64.4918 497.944 55.3527 497.944Z"/>
<path d="M363.072 706.489C353.933 706.489 345.936 703.61 339.082 697.852C332.482 691.844 329.181 683.708 329.181 673.445C329.181 663.181 332.482 655.17 339.082 649.413C345.936 643.405 353.933 640.401 363.072 640.401C372.211 640.401 380.081 643.405 386.681 649.413C393.536 655.17 396.963 663.181 396.963 673.445C396.963 683.708 393.536 691.844 386.681 697.852C380.081 703.61 372.211 706.489 363.072 706.489Z"/>
<path d="M46.8908 372.777C37.7517 372.777 29.755 369.898 22.9007 364.14C16.3002 358.132 13 349.997 13 339.733C13 329.469 16.3002 321.458 22.9007 315.701C29.755 309.693 37.7517 306.689 46.8908 306.689C56.0298 306.689 63.8996 309.693 70.5 315.701C77.3544 321.458 80.7815 329.469 80.7815 339.733C80.7815 349.997 77.3544 358.132 70.5 364.14C63.8996 369.898 56.0298 372.777 46.8908 372.777Z"/>
<path d="M303.837 689.8C294.698 689.8 286.701 686.921 279.847 681.163C273.247 675.155 269.946 667.019 269.946 656.756C269.946 646.492 273.247 638.481 279.847 632.724C286.701 626.716 294.698 623.712 303.837 623.712C312.976 623.712 320.846 626.716 327.446 632.724C334.301 638.481 337.728 646.492 337.728 656.756C337.728 667.019 334.301 675.155 327.446 681.163C320.846 686.921 312.976 689.8 303.837 689.8Z"/>
<path d="M320.761 748.211C311.622 748.211 303.626 745.332 296.771 739.575C290.171 733.567 286.871 725.431 286.871 715.167C286.871 704.903 290.171 696.893 296.771 691.135C303.626 685.127 311.622 682.123 320.761 682.123C329.9 682.123 337.77 685.127 344.371 691.135C351.225 696.893 354.652 704.903 354.652 715.167C354.652 725.431 351.225 733.567 344.371 739.575C337.77 745.332 329.9 748.211 320.761 748.211Z"/>
<path d="M681.549 790C672.41 790 664.413 787.121 657.559 781.363C650.959 775.355 647.658 767.22 647.658 756.956C647.658 746.692 650.959 738.682 657.559 732.924C664.413 726.916 672.41 723.912 681.549 723.912C690.688 723.912 698.558 726.916 705.159 732.924C712.013 738.682 715.44 746.692 715.44 756.956C715.44 767.22 712.013 775.355 705.159 781.363C698.558 787.121 690.688 790 681.549 790Z"/>
<path d="M622.314 698.211C613.175 698.211 605.178 695.332 598.324 689.575C591.724 683.567 588.423 675.431 588.423 665.167C588.423 654.903 591.724 646.893 598.324 641.135C605.178 635.127 613.175 632.123 622.314 632.123C631.453 632.123 639.323 635.127 645.923 641.135C652.778 646.893 656.205 654.903 656.205 665.167C656.205 675.431 652.778 683.567 645.923 689.575C639.323 695.332 631.453 698.211 622.314 698.211Z"/>
<path d="M757.708 514.633C748.569 514.633 740.572 511.754 733.718 505.996C727.117 499.988 723.817 491.853 723.817 481.589C723.817 471.325 727.117 463.315 733.718 457.557C740.572 451.549 748.569 448.545 757.708 448.545C766.847 448.545 774.717 451.549 781.317 457.557C788.172 463.315 791.599 471.325 791.599 481.589C791.599 491.853 788.172 499.988 781.317 505.996C774.717 511.754 766.847 514.633 757.708 514.633Z"/>
<path d="M977.723 456.222C968.584 456.222 960.587 453.343 953.733 447.585C947.132 441.577 943.832 433.441 943.832 423.178C943.832 412.914 947.132 404.903 953.733 399.146C960.587 393.138 968.584 390.134 977.723 390.134C986.862 390.134 994.732 393.138 1001.33 399.146C1008.19 404.903 1011.61 412.914 1011.61 423.178C1011.61 433.441 1008.19 441.577 1001.33 447.585C994.732 453.343 986.862 456.222 977.723 456.222Z"/>
</mask>
<path d="M816.943 447.877C807.804 447.877 799.807 444.998 792.953 439.241C786.352 433.233 783.052 425.097 783.052 414.833C783.052 404.569 786.352 396.559 792.953 390.801C799.807 384.793 807.804 381.789 816.943 381.789C826.082 381.789 833.952 384.793 840.552 390.801C847.406 396.559 850.833 404.569 850.833 414.833C850.833 425.097 847.406 433.233 840.552 439.241C833.952 444.998 826.082 447.877 816.943 447.877Z" fill="#8AFF80" fill-opacity="0.8"/>
<path d="M664.625 356.088C655.486 356.088 647.489 353.209 640.635 347.452C634.034 341.444 630.734 333.308 630.734 323.044C630.734 312.78 634.034 304.77 640.635 299.012C647.489 293.004 655.486 290 664.625 290C673.764 290 681.634 293.004 688.234 299.012C695.088 304.77 698.516 312.78 698.516 323.044C698.516 333.308 695.088 341.444 688.234 347.452C681.634 353.209 673.764 356.088 664.625 356.088Z" fill="#8AFF80"/>
<path d="M647.701 539.666C638.562 539.666 630.565 536.787 623.711 531.03C617.11 525.022 613.81 516.886 613.81 506.622C613.81 496.358 617.11 488.348 623.711 482.59C630.565 476.582 638.562 473.578 647.701 473.578C656.84 473.578 664.71 476.582 671.31 482.59C678.164 488.348 681.592 496.358 681.592 506.622C681.592 516.886 678.164 525.022 671.31 531.03C664.71 536.787 656.84 539.666 647.701 539.666Z" fill="#8AFF80"/>
<path d="M346.148 447.81C337.009 447.81 329.012 444.932 322.158 439.174C315.557 433.166 312.257 425.03 312.257 414.766C312.257 404.503 315.557 396.492 322.158 390.734C329.012 384.726 337.009 381.722 346.148 381.722C355.287 381.722 363.157 384.726 369.757 390.734C376.611 396.492 380.039 404.503 380.039 414.766C380.039 425.03 376.611 433.166 369.757 439.174C363.157 444.932 355.287 447.81 346.148 447.81Z" fill="#8AFF80"/>
<path d="M388.458 464.499C379.319 464.499 371.323 461.62 364.468 455.863C357.868 449.855 354.568 441.719 354.568 431.455C354.568 421.192 357.868 413.181 364.468 407.423C371.323 401.415 379.319 398.411 388.458 398.411C397.597 398.411 405.467 401.415 412.068 407.423C418.922 413.181 422.349 421.192 422.349 431.455C422.349 441.719 418.922 449.855 412.068 455.863C405.467 461.62 397.597 464.499 388.458 464.499Z" fill="#8AFF80"/>
<path d="M363.072 581.322C353.933 581.322 345.936 578.443 339.082 572.685C332.482 566.677 329.181 558.541 329.181 548.278C329.181 538.014 332.482 530.003 339.082 524.246C345.936 518.238 353.933 515.234 363.072 515.234C372.211 515.234 380.081 518.238 386.681 524.246C393.536 530.003 396.963 538.014 396.963 548.278C396.963 558.541 393.536 566.677 386.681 572.685C380.081 578.443 372.211 581.322 363.072 581.322Z" fill="#8AFF80"/>
<path d="M303.837 564.633C294.698 564.633 286.701 561.754 279.847 555.996C273.247 549.988 269.946 541.853 269.946 531.589C269.946 521.325 273.247 513.315 279.847 507.557C286.701 501.549 294.698 498.545 303.837 498.545C312.976 498.545 320.846 501.549 327.446 507.557C334.301 513.315 337.728 521.325 337.728 531.589C337.728 541.853 334.301 549.988 327.446 555.996C320.846 561.754 312.976 564.633 303.837 564.633Z" fill="#8AFF80"/>
<path d="M269.989 531.255C260.85 531.255 252.853 528.376 245.999 522.618C239.398 516.61 236.098 508.475 236.098 498.211C236.098 487.947 239.398 479.937 245.999 474.179C252.853 468.171 260.85 465.167 269.989 465.167C279.128 465.167 286.997 468.171 293.598 474.179C300.452 479.937 303.879 487.947 303.879 498.211C303.879 508.475 300.452 516.61 293.598 522.618C286.997 528.376 279.128 531.255 269.989 531.255Z" fill="#8AFF80"/>
<path d="M269.989 598.011C260.85 598.011 252.853 595.132 245.999 589.374C239.398 583.366 236.098 575.23 236.098 564.966C236.098 554.703 239.398 546.692 245.999 540.934C252.853 534.926 260.85 531.922 269.989 531.922C279.128 531.922 286.997 534.926 293.598 540.934C300.452 546.692 303.879 554.703 303.879 564.966C303.879 575.23 300.452 583.366 293.598 589.374C286.997 595.132 279.128 598.011 269.989 598.011Z" fill="#8AFF80"/>
<path d="M241.519 439.533C232.38 439.533 224.383 436.654 217.529 430.896C210.929 424.888 207.628 416.752 207.628 406.489C207.628 396.225 210.929 388.214 217.529 382.457C224.383 376.449 232.38 373.445 241.519 373.445C250.658 373.445 258.528 376.449 265.128 382.457C271.983 388.214 275.41 396.225 275.41 406.489C275.41 416.752 271.983 424.888 265.128 430.896C258.528 436.654 250.658 439.533 241.519 439.533Z" fill="#8AFF80"/>
<path d="M190.747 439.533C181.608 439.533 173.611 436.654 166.757 430.896C160.156 424.888 156.856 416.752 156.856 406.489C156.856 396.225 160.156 388.214 166.757 382.457C173.611 376.449 181.608 373.445 190.747 373.445C199.886 373.445 207.756 376.449 214.356 382.457C221.21 388.214 224.637 396.225 224.637 406.489C224.637 416.752 221.21 424.888 214.356 430.896C207.756 436.654 199.886 439.533 190.747 439.533Z" fill="#8AFF80" fill-opacity="0.55"/>
<path d="M901.564 673.178C892.425 673.178 884.428 670.299 877.574 664.541C870.974 658.533 867.673 650.397 867.673 640.133C867.673 629.87 870.974 621.859 877.574 616.101C884.428 610.093 892.425 607.089 901.564 607.089C910.703 607.089 918.573 610.093 925.173 616.101C932.028 621.859 935.455 629.87 935.455 640.133C935.455 650.397 932.028 658.533 925.173 664.541C918.573 670.299 910.703 673.178 901.564 673.178Z" fill="#8AFF80" fill-opacity="0.75"/>
<path d="M55.3527 497.944C46.2136 497.944 38.2169 495.065 31.3626 489.307C24.7621 483.299 21.4619 475.164 21.4619 464.9C21.4619 454.636 24.7621 446.625 31.3626 440.868C38.2169 434.86 46.2136 431.856 55.3527 431.856C64.4918 431.856 72.3615 434.86 78.962 440.868C85.8163 446.625 89.2434 454.636 89.2434 464.9C89.2434 475.164 85.8163 483.299 78.962 489.307C72.3615 495.065 64.4918 497.944 55.3527 497.944Z" fill="#8AFF80"/>
<path d="M363.072 706.489C353.933 706.489 345.936 703.61 339.082 697.852C332.482 691.844 329.181 683.708 329.181 673.445C329.181 663.181 332.482 655.17 339.082 649.413C345.936 643.405 353.933 640.401 363.072 640.401C372.211 640.401 380.081 643.405 386.681 649.413C393.536 655.17 396.963 663.181 396.963 673.445C396.963 683.708 393.536 691.844 386.681 697.852C380.081 703.61 372.211 706.489 363.072 706.489Z" fill="#8AFF80"/>
<path d="M46.8908 372.777C37.7517 372.777 29.755 369.898 22.9007 364.14C16.3002 358.132 13 349.997 13 339.733C13 329.469 16.3002 321.458 22.9007 315.701C29.755 309.693 37.7517 306.689 46.8908 306.689C56.0298 306.689 63.8996 309.693 70.5 315.701C77.3544 321.458 80.7815 329.469 80.7815 339.733C80.7815 349.997 77.3544 358.132 70.5 364.14C63.8996 369.898 56.0298 372.777 46.8908 372.777Z" fill="#8AFF80" fill-opacity="0.5"/>
<path d="M303.837 689.8C294.698 689.8 286.701 686.921 279.847 681.163C273.247 675.155 269.946 667.019 269.946 656.756C269.946 646.492 273.247 638.481 279.847 632.724C286.701 626.716 294.698 623.712 303.837 623.712C312.976 623.712 320.846 626.716 327.446 632.724C334.301 638.481 337.728 646.492 337.728 656.756C337.728 667.019 334.301 675.155 327.446 681.163C320.846 686.921 312.976 689.8 303.837 689.8Z" fill="#8AFF80"/>
<path d="M320.761 748.211C311.622 748.211 303.626 745.332 296.771 739.575C290.171 733.567 286.871 725.431 286.871 715.167C286.871 704.903 290.171 696.893 296.771 691.135C303.626 685.127 311.622 682.123 320.761 682.123C329.9 682.123 337.77 685.127 344.371 691.135C351.225 696.893 354.652 704.903 354.652 715.167C354.652 725.431 351.225 733.567 344.371 739.575C337.77 745.332 329.9 748.211 320.761 748.211Z" fill="#8AFF80"/>
<path d="M681.549 790C672.41 790 664.413 787.121 657.559 781.363C650.959 775.355 647.658 767.22 647.658 756.956C647.658 746.692 650.959 738.682 657.559 732.924C664.413 726.916 672.41 723.912 681.549 723.912C690.688 723.912 698.558 726.916 705.159 732.924C712.013 738.682 715.44 746.692 715.44 756.956C715.44 767.22 712.013 775.355 705.159 781.363C698.558 787.121 690.688 790 681.549 790Z" fill="#8AFF80" fill-opacity="0.6"/>
<path d="M622.314 698.211C613.175 698.211 605.178 695.332 598.324 689.575C591.724 683.567 588.423 675.431 588.423 665.167C588.423 654.903 591.724 646.893 598.324 641.135C605.178 635.127 613.175 632.123 622.314 632.123C631.453 632.123 639.323 635.127 645.923 641.135C652.778 646.893 656.205 654.903 656.205 665.167C656.205 675.431 652.778 683.567 645.923 689.575C639.323 695.332 631.453 698.211 622.314 698.211Z" fill="#8AFF80"/>
<path d="M757.708 514.633C748.569 514.633 740.572 511.754 733.718 505.996C727.117 499.988 723.817 491.853 723.817 481.589C723.817 471.325 727.117 463.315 733.718 457.557C740.572 451.549 748.569 448.545 757.708 448.545C766.847 448.545 774.717 451.549 781.317 457.557C788.172 463.315 791.599 471.325 791.599 481.589C791.599 491.853 788.172 499.988 781.317 505.996C774.717 511.754 766.847 514.633 757.708 514.633Z" fill="#8AFF80"/>
<path d="M977.723 456.222C968.584 456.222 960.587 453.343 953.733 447.585C947.132 441.577 943.832 433.441 943.832 423.178C943.832 412.914 947.132 404.903 953.733 399.146C960.587 393.138 968.584 390.134 977.723 390.134C986.862 390.134 994.732 393.138 1001.33 399.146C1008.19 404.903 1011.61 412.914 1011.61 423.178C1011.61 433.441 1008.19 441.577 1001.33 447.585C994.732 453.343 986.862 456.222 977.723 456.222Z" fill="#8AFF80"/>
<path d="M816.943 447.877C807.804 447.877 799.807 444.998 792.953 439.241C786.352 433.233 783.052 425.097 783.052 414.833C783.052 404.569 786.352 396.559 792.953 390.801C799.807 384.793 807.804 381.789 816.943 381.789C826.082 381.789 833.952 384.793 840.552 390.801C847.406 396.559 850.833 404.569 850.833 414.833C850.833 425.097 847.406 433.233 840.552 439.241C833.952 444.998 826.082 447.877 816.943 447.877Z" stroke="#C2FFBD" stroke-width="80" mask="url(#path-4-outside-1_3327_46)"/>
<path d="M664.625 356.088C655.486 356.088 647.489 353.209 640.635 347.452C634.034 341.444 630.734 333.308 630.734 323.044C630.734 312.78 634.034 304.77 640.635 299.012C647.489 293.004 655.486 290 664.625 290C673.764 290 681.634 293.004 688.234 299.012C695.088 304.77 698.516 312.78 698.516 323.044C698.516 333.308 695.088 341.444 688.234 347.452C681.634 353.209 673.764 356.088 664.625 356.088Z" stroke="#C2FFBD" stroke-width="80" mask="url(#path-4-outside-1_3327_46)"/>
<path d="M647.701 539.666C638.562 539.666 630.565 536.787 623.711 531.03C617.11 525.022 613.81 516.886 613.81 506.622C613.81 496.358 617.11 488.348 623.711 482.59C630.565 476.582 638.562 473.578 647.701 473.578C656.84 473.578 664.71 476.582 671.31 482.59C678.164 488.348 681.592 496.358 681.592 506.622C681.592 516.886 678.164 525.022 671.31 531.03C664.71 536.787 656.84 539.666 647.701 539.666Z" stroke="#C2FFBD" stroke-width="80" mask="url(#path-4-outside-1_3327_46)"/>
<path d="M346.148 447.81C337.009 447.81 329.012 444.932 322.158 439.174C315.557 433.166 312.257 425.03 312.257 414.766C312.257 404.503 315.557 396.492 322.158 390.734C329.012 384.726 337.009 381.722 346.148 381.722C355.287 381.722 363.157 384.726 369.757 390.734C376.611 396.492 380.039 404.503 380.039 414.766C380.039 425.03 376.611 433.166 369.757 439.174C363.157 444.932 355.287 447.81 346.148 447.81Z" stroke="#C2FFBD" stroke-width="80" mask="url(#path-4-outside-1_3327_46)"/>
<path d="M388.458 464.499C379.319 464.499 371.323 461.62 364.468 455.863C357.868 449.855 354.568 441.719 354.568 431.455C354.568 421.192 357.868 413.181 364.468 407.423C371.323 401.415 379.319 398.411 388.458 398.411C397.597 398.411 405.467 401.415 412.068 407.423C418.922 413.181 422.349 421.192 422.349 431.455C422.349 441.719 418.922 449.855 412.068 455.863C405.467 461.62 397.597 464.499 388.458 464.499Z" stroke="#C2FFBD" stroke-width="80" mask="url(#path-4-outside-1_3327_46)"/>
<path d="M363.072 581.322C353.933 581.322 345.936 578.443 339.082 572.685C332.482 566.677 329.181 558.541 329.181 548.278C329.181 538.014 332.482 530.003 339.082 524.246C345.936 518.238 353.933 515.234 363.072 515.234C372.211 515.234 380.081 518.238 386.681 524.246C393.536 530.003 396.963 538.014 396.963 548.278C396.963 558.541 393.536 566.677 386.681 572.685C380.081 578.443 372.211 581.322 363.072 581.322Z" stroke="#C2FFBD" stroke-width="80" mask="url(#path-4-outside-1_3327_46)"/>
<path d="M303.837 564.633C294.698 564.633 286.701 561.754 279.847 555.996C273.247 549.988 269.946 541.853 269.946 531.589C269.946 521.325 273.247 513.315 279.847 507.557C286.701 501.549 294.698 498.545 303.837 498.545C312.976 498.545 320.846 501.549 327.446 507.557C334.301 513.315 337.728 521.325 337.728 531.589C337.728 541.853 334.301 549.988 327.446 555.996C320.846 561.754 312.976 564.633 303.837 564.633Z" stroke="#C2FFBD" stroke-width="80" mask="url(#path-4-outside-1_3327_46)"/>
<path d="M269.989 531.255C260.85 531.255 252.853 528.376 245.999 522.618C239.398 516.61 236.098 508.475 236.098 498.211C236.098 487.947 239.398 479.937 245.999 474.179C252.853 468.171 260.85 465.167 269.989 465.167C279.128 465.167 286.997 468.171 293.598 474.179C300.452 479.937 303.879 487.947 303.879 498.211C303.879 508.475 300.452 516.61 293.598 522.618C286.997 528.376 279.128 531.255 269.989 531.255Z" stroke="#C2FFBD" stroke-width="80" mask="url(#path-4-outside-1_3327_46)"/>
<path d="M269.989 598.011C260.85 598.011 252.853 595.132 245.999 589.374C239.398 583.366 236.098 575.23 236.098 564.966C236.098 554.703 239.398 546.692 245.999 540.934C252.853 534.926 260.85 531.922 269.989 531.922C279.128 531.922 286.997 534.926 293.598 540.934C300.452 546.692 303.879 554.703 303.879 564.966C303.879 575.23 300.452 583.366 293.598 589.374C286.997 595.132 279.128 598.011 269.989 598.011Z" stroke="#C2FFBD" stroke-width="80" mask="url(#path-4-outside-1_3327_46)"/>
<path d="M241.519 439.533C232.38 439.533 224.383 436.654 217.529 430.896C210.929 424.888 207.628 416.752 207.628 406.489C207.628 396.225 210.929 388.214 217.529 382.457C224.383 376.449 232.38 373.445 241.519 373.445C250.658 373.445 258.528 376.449 265.128 382.457C271.983 388.214 275.41 396.225 275.41 406.489C275.41 416.752 271.983 424.888 265.128 430.896C258.528 436.654 250.658 439.533 241.519 439.533Z" stroke="#C2FFBD" stroke-width="80" mask="url(#path-4-outside-1_3327_46)"/>
<path d="M190.747 439.533C181.608 439.533 173.611 436.654 166.757 430.896C160.156 424.888 156.856 416.752 156.856 406.489C156.856 396.225 160.156 388.214 166.757 382.457C173.611 376.449 181.608 373.445 190.747 373.445C199.886 373.445 207.756 376.449 214.356 382.457C221.21 388.214 224.637 396.225 224.637 406.489C224.637 416.752 221.21 424.888 214.356 430.896C207.756 436.654 199.886 439.533 190.747 439.533Z" stroke="#C2FFBD" stroke-width="80" mask="url(#path-4-outside-1_3327_46)"/>
<path d="M901.564 673.178C892.425 673.178 884.428 670.299 877.574 664.541C870.974 658.533 867.673 650.397 867.673 640.133C867.673 629.87 870.974 621.859 877.574 616.101C884.428 610.093 892.425 607.089 901.564 607.089C910.703 607.089 918.573 610.093 925.173 616.101C932.028 621.859 935.455 629.87 935.455 640.133C935.455 650.397 932.028 658.533 925.173 664.541C918.573 670.299 910.703 673.178 901.564 673.178Z" stroke="#C2FFBD" stroke-width="80" mask="url(#path-4-outside-1_3327_46)"/>
<path d="M55.3527 497.944C46.2136 497.944 38.2169 495.065 31.3626 489.307C24.7621 483.299 21.4619 475.164 21.4619 464.9C21.4619 454.636 24.7621 446.625 31.3626 440.868C38.2169 434.86 46.2136 431.856 55.3527 431.856C64.4918 431.856 72.3615 434.86 78.962 440.868C85.8163 446.625 89.2434 454.636 89.2434 464.9C89.2434 475.164 85.8163 483.299 78.962 489.307C72.3615 495.065 64.4918 497.944 55.3527 497.944Z" stroke="#C2FFBD" stroke-width="80" mask="url(#path-4-outside-1_3327_46)"/>
<path d="M363.072 706.489C353.933 706.489 345.936 703.61 339.082 697.852C332.482 691.844 329.181 683.708 329.181 673.445C329.181 663.181 332.482 655.17 339.082 649.413C345.936 643.405 353.933 640.401 363.072 640.401C372.211 640.401 380.081 643.405 386.681 649.413C393.536 655.17 396.963 663.181 396.963 673.445C396.963 683.708 393.536 691.844 386.681 697.852C380.081 703.61 372.211 706.489 363.072 706.489Z" stroke="#C2FFBD" stroke-width="80" mask="url(#path-4-outside-1_3327_46)"/>
<path d="M46.8908 372.777C37.7517 372.777 29.755 369.898 22.9007 364.14C16.3002 358.132 13 349.997 13 339.733C13 329.469 16.3002 321.458 22.9007 315.701C29.755 309.693 37.7517 306.689 46.8908 306.689C56.0298 306.689 63.8996 309.693 70.5 315.701C77.3544 321.458 80.7815 329.469 80.7815 339.733C80.7815 349.997 77.3544 358.132 70.5 364.14C63.8996 369.898 56.0298 372.777 46.8908 372.777Z" stroke="#C2FFBD" stroke-width="80" mask="url(#path-4-outside-1_3327_46)"/>
<path d="M303.837 689.8C294.698 689.8 286.701 686.921 279.847 681.163C273.247 675.155 269.946 667.019 269.946 656.756C269.946 646.492 273.247 638.481 279.847 632.724C286.701 626.716 294.698 623.712 303.837 623.712C312.976 623.712 320.846 626.716 327.446 632.724C334.301 638.481 337.728 646.492 337.728 656.756C337.728 667.019 334.301 675.155 327.446 681.163C320.846 686.921 312.976 689.8 303.837 689.8Z" stroke="#C2FFBD" stroke-width="80" mask="url(#path-4-outside-1_3327_46)"/>
<path d="M320.761 748.211C311.622 748.211 303.626 745.332 296.771 739.575C290.171 733.567 286.871 725.431 286.871 715.167C286.871 704.903 290.171 696.893 296.771 691.135C303.626 685.127 311.622 682.123 320.761 682.123C329.9 682.123 337.77 685.127 344.371 691.135C351.225 696.893 354.652 704.903 354.652 715.167C354.652 725.431 351.225 733.567 344.371 739.575C337.77 745.332 329.9 748.211 320.761 748.211Z" stroke="#C2FFBD" stroke-width="80" mask="url(#path-4-outside-1_3327_46)"/>
<path d="M681.549 790C672.41 790 664.413 787.121 657.559 781.363C650.959 775.355 647.658 767.22 647.658 756.956C647.658 746.692 650.959 738.682 657.559 732.924C664.413 726.916 672.41 723.912 681.549 723.912C690.688 723.912 698.558 726.916 705.159 732.924C712.013 738.682 715.44 746.692 715.44 756.956C715.44 767.22 712.013 775.355 705.159 781.363C698.558 787.121 690.688 790 681.549 790Z" stroke="#C2FFBD" stroke-width="80" mask="url(#path-4-outside-1_3327_46)"/>
<path d="M622.314 698.211C613.175 698.211 605.178 695.332 598.324 689.575C591.724 683.567 588.423 675.431 588.423 665.167C588.423 654.903 591.724 646.893 598.324 641.135C605.178 635.127 613.175 632.123 622.314 632.123C631.453 632.123 639.323 635.127 645.923 641.135C652.778 646.893 656.205 654.903 656.205 665.167C656.205 675.431 652.778 683.567 645.923 689.575C639.323 695.332 631.453 698.211 622.314 698.211Z" stroke="#C2FFBD" stroke-width="80" mask="url(#path-4-outside-1_3327_46)"/>
<path d="M757.708 514.633C748.569 514.633 740.572 511.754 733.718 505.996C727.117 499.988 723.817 491.853 723.817 481.589C723.817 471.325 727.117 463.315 733.718 457.557C740.572 451.549 748.569 448.545 757.708 448.545C766.847 448.545 774.717 451.549 781.317 457.557C788.172 463.315 791.599 471.325 791.599 481.589C791.599 491.853 788.172 499.988 781.317 505.996C774.717 511.754 766.847 514.633 757.708 514.633Z" stroke="#C2FFBD" stroke-width="80" mask="url(#path-4-outside-1_3327_46)"/>
<path d="M977.723 456.222C968.584 456.222 960.587 453.343 953.733 447.585C947.132 441.577 943.832 433.441 943.832 423.178C943.832 412.914 947.132 404.903 953.733 399.146C960.587 393.138 968.584 390.134 977.723 390.134C986.862 390.134 994.732 393.138 1001.33 399.146C1008.19 404.903 1011.61 412.914 1011.61 423.178C1011.61 433.441 1008.19 441.577 1001.33 447.585C994.732 453.343 986.862 456.222 977.723 456.222Z" stroke="#C2FFBD" stroke-width="80" mask="url(#path-4-outside-1_3327_46)"/>
<circle cx="512" cy="512" r="410" fill="#8AFF80" fill-opacity="0.6"/>
<circle cx="512" cy="512" r="350" stroke="#C2FFBD" stroke-opacity="0.8" stroke-width="120"/>
<mask id="path-7-outside-2_3327_46" maskUnits="userSpaceOnUse" x="-8" y="318" width="1068" height="472" fill="black">
<rect fill="white" x="-8" y="318" width="1068" height="472"/>
<path d="M32.7109 676V472.8C42.8443 469.867 55.9109 467.2 71.9109 464.8C87.9109 462.133 104.711 460.8 122.311 460.8C146.311 460.8 164.978 464.933 178.311 473.2C191.644 481.2 200.978 492.4 206.311 506.8C211.644 521.2 214.311 538 214.311 557.2V676H154.711V564.4C154.711 551.6 153.644 541.333 151.511 533.6C149.378 525.867 145.644 520.267 140.311 516.8C135.244 513.333 128.044 511.6 118.711 511.6C114.444 511.6 109.911 511.867 105.111 512.4C100.311 512.667 96.0443 513.067 92.3109 513.6V676H32.7109Z"/>
<path d="M296.258 681.6C277.591 681.6 261.991 680 249.458 676.8C237.191 673.6 228.658 670.933 223.858 668.8L233.858 620.4C243.991 624.4 254.391 627.6 265.058 630C275.724 632.133 286.258 633.2 296.658 633.2C307.591 633.2 315.324 632.133 319.858 630C324.391 627.867 326.658 623.733 326.658 617.6C326.658 614.4 325.324 611.6 322.658 609.2C319.991 606.533 315.991 603.867 310.658 601.2C305.591 598.533 299.058 595.733 291.058 592.8C278.791 588 267.991 582.933 258.658 577.6C249.324 572.267 242.124 565.467 237.058 557.2C231.991 548.667 229.458 537.6 229.458 524C229.458 510.667 232.791 499.333 239.458 490C246.124 480.4 255.591 473.067 267.858 468C280.124 462.667 294.791 460 311.858 460C324.658 460 336.924 461.2 348.658 463.6C360.391 465.733 369.724 468.133 376.658 470.8L366.258 517.2C359.324 514.8 351.724 512.667 343.458 510.8C335.458 508.933 326.391 508 316.258 508C306.924 508 299.858 509.333 295.058 512C290.524 514.4 288.258 518.267 288.258 523.6C288.258 526.533 289.058 529.333 290.658 532C292.258 534.4 295.324 536.8 299.858 539.2C304.391 541.6 311.058 544.4 319.858 547.6C337.458 554 350.924 560.4 360.258 566.8C369.858 573.2 376.524 580.533 380.258 588.8C383.991 596.8 385.858 606.667 385.858 618.4C385.858 632.267 382.391 643.867 375.458 653.2C368.524 662.533 358.391 669.6 345.058 674.4C331.724 679.2 315.458 681.6 296.258 681.6ZM398.398 676V472.8C408.798 469.867 421.865 467.2 437.598 464.8C453.598 462.133 469.332 460.8 484.798 460.8C499.998 460.8 512.265 462.8 521.598 466.8C531.198 470.533 539.065 475.067 545.198 480.4C551.065 476.133 557.332 472.667 563.998 470C570.932 467.067 577.998 464.8 585.198 463.2C592.398 461.6 599.065 460.8 605.198 460.8C627.598 460.8 644.798 464.933 656.798 473.2C669.065 481.2 677.465 492.4 681.998 506.8C686.798 521.2 689.198 538 689.198 557.2V676H629.598V564.4C629.598 551.6 628.532 541.333 626.398 533.6C624.265 525.867 620.798 520.267 615.998 516.8C611.198 513.333 604.798 511.6 596.798 511.6C594.665 511.6 591.865 512 588.398 512.8C585.198 513.333 581.865 514.267 578.398 515.6C574.932 516.933 571.865 518.4 569.198 520C571.065 526.133 572.265 532.667 572.798 539.6C573.332 546.267 573.598 553.467 573.598 561.2V676H513.998V564.4C513.998 551.6 512.932 541.333 510.798 533.6C508.665 525.867 505.198 520.267 500.398 516.8C495.598 513.333 489.198 511.6 481.198 511.6C478.798 511.6 476.265 511.733 473.598 512C470.932 512 468.265 512.133 465.598 512.4C463.198 512.667 460.665 513.067 457.998 513.6V676H398.398ZM711.32 750V472.8C718.52 470.667 726.92 468.667 736.52 466.8C746.387 464.933 756.52 463.467 766.92 462.4C777.587 461.333 787.72 460.8 797.32 460.8C820.52 460.8 840.254 465.333 856.52 474.4C872.787 483.2 885.187 495.867 893.72 512.4C902.52 528.933 906.92 548.4 906.92 570.8C906.92 592.4 903.32 611.467 896.12 628C889.187 644.267 878.92 657.067 865.32 666.4C851.72 675.467 834.92 680 814.92 680C806.654 680 798.92 679.2 791.72 677.6C784.52 676 777.587 673.733 770.92 670.8V750H711.32ZM803.72 629.6C810.92 629.6 817.054 628.4 822.12 626C827.454 623.6 831.854 620 835.32 615.2C839.054 610.4 841.72 604.533 843.32 597.6C845.187 590.4 846.12 582 846.12 572.4C846.12 560.133 844.254 549.467 840.52 540.4C836.787 531.333 831.32 524.267 824.12 519.2C816.92 514.133 807.854 511.6 796.92 511.6C791.587 511.6 786.654 511.867 782.12 512.4C777.587 512.667 773.854 513.067 770.92 513.6V621.2C774.654 623.6 779.454 625.6 785.32 627.2C791.454 628.8 797.587 629.6 803.72 629.6ZM1004.73 680C981.793 679.467 964.193 676.267 951.927 670.4C939.927 664.533 931.66 656.267 927.127 645.6C922.86 634.667 920.727 621.733 920.727 606.8V375.2L980.327 365.6V594.8C980.327 605.467 982.193 613.867 985.927 620C989.927 626.133 998.993 629.733 1013.13 630.8L1004.73 680Z"/>
</mask>
<path d="M32.7109 676V472.8C42.8443 469.867 55.9109 467.2 71.9109 464.8C87.9109 462.133 104.711 460.8 122.311 460.8C146.311 460.8 164.978 464.933 178.311 473.2C191.644 481.2 200.978 492.4 206.311 506.8C211.644 521.2 214.311 538 214.311 557.2V676H154.711V564.4C154.711 551.6 153.644 541.333 151.511 533.6C149.378 525.867 145.644 520.267 140.311 516.8C135.244 513.333 128.044 511.6 118.711 511.6C114.444 511.6 109.911 511.867 105.111 512.4C100.311 512.667 96.0443 513.067 92.3109 513.6V676H32.7109Z" fill="#E3FFE1"/>
<path d="M296.258 681.6C277.591 681.6 261.991 680 249.458 676.8C237.191 673.6 228.658 670.933 223.858 668.8L233.858 620.4C243.991 624.4 254.391 627.6 265.058 630C275.724 632.133 286.258 633.2 296.658 633.2C307.591 633.2 315.324 632.133 319.858 630C324.391 627.867 326.658 623.733 326.658 617.6C326.658 614.4 325.324 611.6 322.658 609.2C319.991 606.533 315.991 603.867 310.658 601.2C305.591 598.533 299.058 595.733 291.058 592.8C278.791 588 267.991 582.933 258.658 577.6C249.324 572.267 242.124 565.467 237.058 557.2C231.991 548.667 229.458 537.6 229.458 524C229.458 510.667 232.791 499.333 239.458 490C246.124 480.4 255.591 473.067 267.858 468C280.124 462.667 294.791 460 311.858 460C324.658 460 336.924 461.2 348.658 463.6C360.391 465.733 369.724 468.133 376.658 470.8L366.258 517.2C359.324 514.8 351.724 512.667 343.458 510.8C335.458 508.933 326.391 508 316.258 508C306.924 508 299.858 509.333 295.058 512C290.524 514.4 288.258 518.267 288.258 523.6C288.258 526.533 289.058 529.333 290.658 532C292.258 534.4 295.324 536.8 299.858 539.2C304.391 541.6 311.058 544.4 319.858 547.6C337.458 554 350.924 560.4 360.258 566.8C369.858 573.2 376.524 580.533 380.258 588.8C383.991 596.8 385.858 606.667 385.858 618.4C385.858 632.267 382.391 643.867 375.458 653.2C368.524 662.533 358.391 669.6 345.058 674.4C331.724 679.2 315.458 681.6 296.258 681.6ZM398.398 676V472.8C408.798 469.867 421.865 467.2 437.598 464.8C453.598 462.133 469.332 460.8 484.798 460.8C499.998 460.8 512.265 462.8 521.598 466.8C531.198 470.533 539.065 475.067 545.198 480.4C551.065 476.133 557.332 472.667 563.998 470C570.932 467.067 577.998 464.8 585.198 463.2C592.398 461.6 599.065 460.8 605.198 460.8C627.598 460.8 644.798 464.933 656.798 473.2C669.065 481.2 677.465 492.4 681.998 506.8C686.798 521.2 689.198 538 689.198 557.2V676H629.598V564.4C629.598 551.6 628.532 541.333 626.398 533.6C624.265 525.867 620.798 520.267 615.998 516.8C611.198 513.333 604.798 511.6 596.798 511.6C594.665 511.6 591.865 512 588.398 512.8C585.198 513.333 581.865 514.267 578.398 515.6C574.932 516.933 571.865 518.4 569.198 520C571.065 526.133 572.265 532.667 572.798 539.6C573.332 546.267 573.598 553.467 573.598 561.2V676H513.998V564.4C513.998 551.6 512.932 541.333 510.798 533.6C508.665 525.867 505.198 520.267 500.398 516.8C495.598 513.333 489.198 511.6 481.198 511.6C478.798 511.6 476.265 511.733 473.598 512C470.932 512 468.265 512.133 465.598 512.4C463.198 512.667 460.665 513.067 457.998 513.6V676H398.398ZM711.32 750V472.8C718.52 470.667 726.92 468.667 736.52 466.8C746.387 464.933 756.52 463.467 766.92 462.4C777.587 461.333 787.72 460.8 797.32 460.8C820.52 460.8 840.254 465.333 856.52 474.4C872.787 483.2 885.187 495.867 893.72 512.4C902.52 528.933 906.92 548.4 906.92 570.8C906.92 592.4 903.32 611.467 896.12 628C889.187 644.267 878.92 657.067 865.32 666.4C851.72 675.467 834.92 680 814.92 680C806.654 680 798.92 679.2 791.72 677.6C784.52 676 777.587 673.733 770.92 670.8V750H711.32ZM803.72 629.6C810.92 629.6 817.054 628.4 822.12 626C827.454 623.6 831.854 620 835.32 615.2C839.054 610.4 841.72 604.533 843.32 597.6C845.187 590.4 846.12 582 846.12 572.4C846.12 560.133 844.254 549.467 840.52 540.4C836.787 531.333 831.32 524.267 824.12 519.2C816.92 514.133 807.854 511.6 796.92 511.6C791.587 511.6 786.654 511.867 782.12 512.4C777.587 512.667 773.854 513.067 770.92 513.6V621.2C774.654 623.6 779.454 625.6 785.32 627.2C791.454 628.8 797.587 629.6 803.72 629.6ZM1004.73 680C981.793 679.467 964.193 676.267 951.927 670.4C939.927 664.533 931.66 656.267 927.127 645.6C922.86 634.667 920.727 621.733 920.727 606.8V375.2L980.327 365.6V594.8C980.327 605.467 982.193 613.867 985.927 620C989.927 626.133 998.993 629.733 1013.13 630.8L1004.73 680Z" fill="#F3FFF2"/>
<path d="M32.7109 676H-7.28906V716H32.7109V676ZM32.7109 472.8L21.5886 434.377L-7.28906 442.737V472.8H32.7109ZM71.9109 464.8L77.8445 504.357L78.1661 504.309L78.4869 504.256L71.9109 464.8ZM178.311 473.2L157.233 507.196L157.481 507.35L157.731 507.5L178.311 473.2ZM206.311 506.8L168.801 520.693L168.801 520.693L206.311 506.8ZM214.311 676V716H254.311V676H214.311ZM154.711 676H114.711V716H154.711V676ZM151.511 533.6L112.951 544.237L112.951 544.237L151.511 533.6ZM140.311 516.8L117.724 549.812L118.114 550.08L118.511 550.338L140.311 516.8ZM105.111 512.4L107.33 552.338L108.431 552.277L109.528 552.155L105.111 512.4ZM92.3109 513.6L86.6541 474.002L52.3109 478.908V513.6H92.3109ZM92.3109 676V716H132.311V676H92.3109ZM32.7109 676H72.7109V472.8H32.7109H-7.28906V676H32.7109ZM32.7109 472.8L43.8333 511.223C51.6204 508.968 62.7786 506.617 77.8445 504.357L71.9109 464.8L65.9774 425.243C49.0433 427.783 34.0682 430.765 21.5886 434.377L32.7109 472.8ZM71.9109 464.8L78.4869 504.256C92.1391 501.98 106.73 500.8 122.311 500.8V460.8V420.8C102.692 420.8 83.6828 422.286 65.3349 425.344L71.9109 464.8ZM122.311 460.8V500.8C142.511 500.8 152.743 504.412 157.233 507.196L178.311 473.2L199.389 439.204C177.212 425.455 150.111 420.8 122.311 420.8V460.8ZM178.311 473.2L157.731 507.5C163.372 510.884 166.67 514.938 168.801 520.693L206.311 506.8L243.821 492.907C235.286 469.862 219.917 451.516 198.891 438.9L178.311 473.2ZM206.311 506.8L168.801 520.693C172.133 529.689 174.311 541.602 174.311 557.2H214.311H254.311C254.311 534.398 251.155 512.711 243.821 492.907L206.311 506.8ZM214.311 557.2H174.311V676H214.311H254.311V557.2H214.311ZM214.311 676V636H154.711V676V716H214.311V676ZM154.711 676H194.711V564.4H154.711H114.711V676H154.711ZM154.711 564.4H194.711C194.711 549.869 193.553 535.587 190.071 522.963L151.511 533.6L112.951 544.237C113.735 547.079 114.711 553.331 114.711 564.4H154.711ZM151.511 533.6L190.071 522.963C186.04 508.35 177.615 493.34 162.11 483.262L140.311 516.8L118.511 550.338C116.357 548.938 114.8 547.245 113.829 545.788C112.929 544.438 112.806 543.712 112.951 544.237L151.511 533.6ZM140.311 516.8L162.898 483.788C148.545 473.967 132.18 471.6 118.711 471.6V511.6V551.6C119.817 551.6 120.615 551.652 121.14 551.707C121.667 551.762 121.85 551.813 121.749 551.789C121.569 551.746 119.938 551.328 117.724 549.812L140.311 516.8ZM118.711 511.6V471.6C112.791 471.6 106.773 471.969 100.694 472.645L105.111 512.4L109.528 552.155C113.049 551.764 116.097 551.6 118.711 551.6V511.6ZM105.111 512.4L102.892 472.462C97.2369 472.776 91.7873 473.269 86.6541 474.002L92.3109 513.6L97.9678 553.198C100.301 552.865 103.385 552.558 107.33 552.338L105.111 512.4ZM92.3109 513.6H52.3109V676H92.3109H132.311V513.6H92.3109ZM92.3109 676V636H32.7109V676V716H92.3109V676ZM249.458 676.8L239.361 715.505L239.462 715.531L239.562 715.557L249.458 676.8ZM223.858 668.8L184.685 660.706L178.165 692.265L207.612 705.352L223.858 668.8ZM233.858 620.4L248.544 583.194L204.308 565.732L194.685 612.306L233.858 620.4ZM265.058 630L256.277 669.024L256.744 669.129L257.213 669.223L265.058 630ZM319.858 630L336.89 666.193V666.193L319.858 630ZM322.658 609.2L294.374 637.484L295.117 638.228L295.899 638.932L322.658 609.2ZM310.658 601.2L292.028 636.597L292.397 636.791L292.769 636.977L310.658 601.2ZM291.058 592.8L276.482 630.05L276.883 630.207L277.288 630.355L291.058 592.8ZM258.658 577.6L238.812 612.33V612.33L258.658 577.6ZM237.058 557.2L202.664 577.622L202.807 577.863L202.954 578.102L237.058 557.2ZM239.458 490L272.007 513.249L272.161 513.034L272.313 512.816L239.458 490ZM267.858 468L283.128 504.97L283.469 504.83L283.807 504.683L267.858 468ZM348.658 463.6L340.642 502.789L341.071 502.876L341.502 502.955L348.658 463.6ZM376.658 470.8L415.689 479.548L423.24 445.86L391.017 433.466L376.658 470.8ZM366.258 517.2L353.173 554.999L395.494 569.649L405.289 525.948L366.258 517.2ZM343.458 510.8L334.369 549.754L334.508 549.786L334.647 549.818L343.458 510.8ZM295.058 512L313.773 547.352L314.13 547.162L314.484 546.966L295.058 512ZM290.658 532L256.358 552.58L256.848 553.396L257.376 554.188L290.658 532ZM299.858 539.2L318.573 503.848V503.848L299.858 539.2ZM319.858 547.6L306.188 585.192L319.858 547.6ZM360.258 566.8L337.637 599.789L337.852 599.937L338.07 600.082L360.258 566.8ZM380.258 588.8L343.803 605.263L343.905 605.49L344.01 605.715L380.258 588.8ZM375.458 653.2L343.348 629.347L343.348 629.347L375.458 653.2ZM345.058 674.4L331.509 636.764V636.764L345.058 674.4ZM296.258 681.6V641.6C279.593 641.6 267.574 640.142 259.353 638.043L249.458 676.8L239.562 715.557C256.408 719.858 275.589 721.6 296.258 721.6V681.6ZM249.458 676.8L259.555 638.095C247.28 634.893 241.605 632.915 240.103 632.248L223.858 668.8L207.612 705.352C215.711 708.952 227.103 712.307 239.361 715.505L249.458 676.8ZM223.858 668.8L263.03 676.894L273.03 628.494L233.858 620.4L194.685 612.306L184.685 660.706L223.858 668.8ZM233.858 620.4L219.171 657.606C231.23 662.366 243.605 666.173 256.277 669.024L265.058 630L273.838 590.976C265.177 589.027 256.752 586.434 248.544 583.194L233.858 620.4ZM265.058 630L257.213 669.223C270.345 671.85 283.506 673.2 296.658 673.2V633.2V593.2C289.01 593.2 281.104 592.417 272.902 590.777L265.058 630ZM296.658 633.2V673.2C308.118 673.2 323.695 672.402 336.89 666.193L319.858 630L302.826 593.807C304.416 593.059 305.505 592.762 305.761 592.695C306.053 592.619 305.907 592.677 305.192 592.775C303.693 592.982 300.96 593.2 296.658 593.2V633.2ZM319.858 630L336.89 666.193C346.302 661.764 354.565 654.499 360.03 644.533C365.225 635.06 366.658 625.425 366.658 617.6H326.658H286.658C286.658 615.908 286.957 611.407 289.885 606.067C293.084 600.234 297.947 596.103 302.826 593.807L319.858 630ZM326.658 617.6H366.658C366.658 601.618 359.377 588.433 349.416 579.468L322.658 609.2L295.899 638.932C293.927 637.156 291.467 634.336 289.543 630.297C287.569 626.152 286.658 621.755 286.658 617.6H326.658ZM322.658 609.2L350.942 580.916C343.997 573.971 335.762 569.031 328.546 565.423L310.658 601.2L292.769 636.977C294.289 637.737 295.131 638.256 295.47 638.482C295.625 638.586 295.594 638.574 295.42 638.435C295.248 638.297 294.876 637.987 294.374 637.484L322.658 609.2ZM310.658 601.2L329.288 565.803C322.093 562.017 313.774 558.525 304.828 555.245L291.058 592.8L277.288 630.355C284.342 632.942 289.089 635.05 292.028 636.597L310.658 601.2ZM291.058 592.8L305.634 555.55C294.795 551.309 285.817 547.05 278.503 542.87L258.658 577.6L238.812 612.33C250.165 618.817 262.787 624.691 276.482 630.05L291.058 592.8ZM258.658 577.6L278.503 542.87C274.362 540.504 272.344 538.226 271.162 536.298L237.058 557.2L202.954 578.102C211.905 592.708 224.287 604.03 238.812 612.33L258.658 577.6ZM237.058 557.2L271.452 536.778C271.17 536.304 269.458 532.968 269.458 524H229.458H189.458C189.458 542.232 192.812 561.029 202.664 577.622L237.058 557.2ZM229.458 524H269.458C269.458 517.605 270.94 514.743 272.007 513.249L239.458 490L206.908 466.75C194.642 483.924 189.458 503.728 189.458 524H229.458ZM239.458 490L272.313 512.816C274.025 510.35 276.971 507.514 283.128 504.97L267.858 468L252.587 431.03C234.211 438.62 218.224 450.45 206.603 467.184L239.458 490ZM267.858 468L283.807 504.683C289.858 502.052 298.822 500 311.858 500V460V420C290.76 420 270.391 423.281 251.909 431.317L267.858 468ZM311.858 460V500C322.149 500 331.72 500.964 340.642 502.789L348.658 463.6L356.674 424.411C342.129 421.436 327.167 420 311.858 420V460ZM348.658 463.6L341.502 502.955C352.06 504.874 358.662 506.735 362.299 508.134L376.658 470.8L391.017 433.466C380.786 429.531 368.722 426.592 355.813 424.245L348.658 463.6ZM376.658 470.8L337.626 462.052L327.226 508.452L366.258 517.2L405.289 525.948L415.689 479.548L376.658 470.8ZM366.258 517.2L379.342 479.401C370.813 476.448 361.765 473.927 352.268 471.782L343.458 510.8L334.647 549.818C341.684 551.407 347.836 553.152 353.173 554.999L366.258 517.2ZM343.458 510.8L352.547 471.846C340.971 469.145 328.771 468 316.258 468V508V548C324.011 548 329.945 548.721 334.369 549.754L343.458 510.8ZM316.258 508V468C304.297 468 289.184 469.505 275.632 477.034L295.058 512L314.484 546.966C313.29 547.629 312.364 547.985 311.86 548.155C311.356 548.324 311.164 548.346 311.374 548.306C311.58 548.268 312.08 548.187 312.924 548.118C313.764 548.05 314.865 548 316.258 548V508ZM295.058 512L276.342 476.648C268.478 480.812 260.859 487.244 255.45 496.471C250.091 505.613 248.258 515.179 248.258 523.6H288.258H328.258C328.258 526.687 327.558 531.654 324.466 536.929C321.323 542.29 317.104 545.588 313.773 547.352L295.058 512ZM288.258 523.6H248.258C248.258 534.224 251.262 544.086 256.358 552.58L290.658 532L324.958 511.42C326.854 514.581 328.258 518.842 328.258 523.6H288.258ZM290.658 532L257.376 554.188C264.519 564.903 274.656 571.118 281.142 574.552L299.858 539.2L318.573 503.848C317.781 503.429 318.005 503.469 318.81 504.1C319.537 504.668 321.714 506.473 323.94 509.812L290.658 532ZM299.858 539.2L281.142 574.552C288.119 578.245 296.82 581.785 306.188 585.192L319.858 547.6L333.528 510.008C325.296 507.015 320.663 504.955 318.573 503.848L299.858 539.2ZM319.858 547.6L306.188 585.192C322.397 591.086 332.297 596.128 337.637 599.789L360.258 566.8L382.879 533.811C369.552 524.672 352.519 516.914 333.528 510.008L319.858 547.6ZM360.258 566.8L338.07 600.082C340.582 601.757 342.052 603.117 342.86 604.007C343.259 604.445 343.495 604.767 343.626 604.963C343.754 605.155 343.799 605.254 343.803 605.263L380.258 588.8L416.713 572.337C409.157 555.606 396.605 542.957 382.446 533.518L360.258 566.8ZM380.258 588.8L344.01 605.715C344.599 606.977 345.858 610.679 345.858 618.4H385.858H425.858C425.858 602.654 423.383 586.623 416.505 571.885L380.258 588.8ZM385.858 618.4H345.858C345.858 625.378 344.227 628.163 343.348 629.347L375.458 653.2L407.568 677.053C420.555 659.57 425.858 639.155 425.858 618.4H385.858ZM375.458 653.2L343.348 629.347C342.05 631.094 339.07 634.042 331.509 636.764L345.058 674.4L358.607 712.035C377.712 705.158 394.999 693.972 407.568 677.053L375.458 653.2ZM345.058 674.4L331.509 636.764C323.76 639.554 312.37 641.6 296.258 641.6V681.6V721.6C318.546 721.6 339.689 718.846 358.607 712.035L345.058 674.4ZM398.398 676H358.398V716H398.398V676ZM398.398 472.8L387.54 434.302L358.398 442.521V472.8H398.398ZM437.598 464.8L443.63 504.343L443.903 504.301L444.174 504.256L437.598 464.8ZM521.598 466.8L505.842 503.566L506.467 503.834L507.101 504.08L521.598 466.8ZM545.198 480.4L518.951 510.584L542.977 531.476L568.725 512.749L545.198 480.4ZM563.998 470L578.854 507.139L579.221 506.992L579.584 506.839L563.998 470ZM585.198 463.2L593.876 502.247L593.876 502.247L585.198 463.2ZM656.798 473.2L634.106 506.14L634.523 506.428L634.948 506.704L656.798 473.2ZM681.998 506.8L643.844 518.811L643.945 519.131L644.051 519.449L681.998 506.8ZM689.198 676V716H729.198V676H689.198ZM629.598 676H589.598V716H629.598V676ZM626.398 533.6L664.958 522.963V522.963L626.398 533.6ZM615.998 516.8L639.418 484.373L639.418 484.373L615.998 516.8ZM588.398 512.8L594.974 552.256L596.191 552.053L597.393 551.776L588.398 512.8ZM569.198 520L548.619 485.7L521.838 501.769L530.932 531.646L569.198 520ZM572.798 539.6L532.916 542.668L532.921 542.729L532.926 542.79L572.798 539.6ZM573.598 676V716H613.598V676H573.598ZM513.998 676H473.998V716H513.998V676ZM510.798 533.6L472.239 544.237V544.237L510.798 533.6ZM500.398 516.8L523.818 484.373V484.373L500.398 516.8ZM473.598 512V552H475.593L477.579 551.801L473.598 512ZM465.598 512.4L461.618 472.599L461.4 472.62L461.181 472.645L465.598 512.4ZM457.998 513.6L450.154 474.377L417.998 480.808V513.6H457.998ZM457.998 676V716H497.998V676H457.998ZM398.398 676H438.398V472.8H398.398H358.398V676H398.398ZM398.398 472.8L409.257 511.298C417.521 508.967 428.841 506.599 443.63 504.343L437.598 464.8L431.567 425.257C414.889 427.801 400.076 430.766 387.54 434.302L398.398 472.8ZM437.598 464.8L444.174 504.256C458.106 501.934 471.639 500.8 484.798 500.8V460.8V420.8C467.024 420.8 449.091 422.333 431.022 425.344L437.598 464.8ZM484.798 460.8V500.8C497.024 500.8 503.327 502.488 505.842 503.566L521.598 466.8L537.355 430.034C521.204 423.112 502.972 420.8 484.798 420.8V460.8ZM521.598 466.8L507.101 504.08C513.501 506.569 517.085 508.962 518.951 510.584L545.198 480.4L571.446 450.216C561.045 441.172 548.896 434.497 536.096 429.52L521.598 466.8ZM545.198 480.4L568.725 512.749C571.939 510.412 575.297 508.562 578.854 507.139L563.998 470L549.143 432.861C539.367 436.771 530.191 441.854 521.672 448.051L545.198 480.4ZM563.998 470L579.584 506.839C584.332 504.83 589.089 503.311 593.876 502.247L585.198 463.2L576.521 424.153C566.908 426.289 557.531 429.304 548.413 433.161L563.998 470ZM585.198 463.2L593.876 502.247C598.78 501.158 602.5 500.8 605.198 500.8V460.8V420.8C595.63 420.8 586.017 422.042 576.521 424.153L585.198 463.2ZM605.198 460.8V500.8C623.553 500.8 631.484 504.334 634.106 506.14L656.798 473.2L679.491 440.26C658.113 425.533 631.643 420.8 605.198 420.8V460.8ZM656.798 473.2L634.948 506.704C639.199 509.477 642 512.951 643.844 518.811L681.998 506.8L720.152 494.789C712.931 471.849 698.931 452.923 678.649 439.696L656.798 473.2ZM681.998 506.8L644.051 519.449C647.186 528.855 649.198 541.214 649.198 557.2H689.198H729.198C729.198 534.786 726.411 513.545 719.946 494.151L681.998 506.8ZM689.198 557.2H649.198V676H689.198H729.198V557.2H689.198ZM689.198 676V636H629.598V676V716H689.198V676ZM629.598 676H669.598V564.4H629.598H589.598V676H629.598ZM629.598 564.4H669.598C669.598 549.869 668.441 535.587 664.958 522.963L626.398 533.6L587.839 544.237C588.623 547.079 589.598 553.331 589.598 564.4H629.598ZM626.398 533.6L664.958 522.963C661.26 509.556 653.839 494.788 639.418 484.373L615.998 516.8L592.579 549.227C587.758 545.745 587.271 542.178 587.839 544.237L626.398 533.6ZM615.998 516.8L639.418 484.373C625.773 474.518 610.301 471.6 596.798 471.6V511.6V551.6C599.295 551.6 596.624 552.148 592.579 549.227L615.998 516.8ZM596.798 511.6V471.6C590.3 471.6 584.144 472.731 579.404 473.824L588.398 512.8L597.393 551.776C597.826 551.676 598.158 551.607 598.396 551.561C598.514 551.539 598.603 551.523 598.665 551.512C598.727 551.502 598.756 551.498 598.755 551.498C598.754 551.498 598.717 551.503 598.645 551.512C598.573 551.52 598.459 551.532 598.306 551.544C598.013 551.568 597.498 551.6 596.798 551.6V511.6ZM588.398 512.8L581.822 473.344C575.613 474.379 569.668 476.101 564.039 478.266L578.398 515.6L592.758 552.934C594.062 552.432 594.784 552.288 594.974 552.256L588.398 512.8ZM578.398 515.6L564.039 478.266C558.817 480.275 553.605 482.709 548.619 485.7L569.198 520L589.778 554.3C590.125 554.091 591.047 553.592 592.758 552.934L578.398 515.6ZM569.198 520L530.932 531.646C531.88 534.764 532.588 538.401 532.916 542.668L572.798 539.6L612.681 536.532C611.942 526.932 610.25 517.503 607.465 508.354L569.198 520ZM572.798 539.6L532.926 542.79C533.362 548.247 533.598 554.371 533.598 561.2H573.598H613.598C613.598 552.562 613.301 544.286 612.671 536.41L572.798 539.6ZM573.598 561.2H533.598V676H573.598H613.598V561.2H573.598ZM573.598 676V636H513.998V676V716H573.598V676ZM513.998 676H553.998V564.4H513.998H473.998V676H513.998ZM513.998 564.4H553.998C553.998 549.869 552.841 535.587 549.358 522.963L510.798 533.6L472.239 544.237C473.023 547.079 473.998 553.331 473.998 564.4H513.998ZM510.798 533.6L549.358 522.963C545.66 509.556 538.239 494.788 523.818 484.373L500.398 516.8L476.979 549.227C472.158 545.745 471.671 542.178 472.239 544.237L510.798 533.6ZM500.398 516.8L523.818 484.373C510.173 474.518 494.701 471.6 481.198 471.6V511.6V551.6C483.695 551.6 481.024 552.148 476.979 549.227L500.398 516.8ZM481.198 511.6V471.6C477.327 471.6 473.458 471.815 469.618 472.199L473.598 512L477.579 551.801C479.073 551.652 480.27 551.6 481.198 551.6V511.6ZM473.598 512V472C469.596 472 465.601 472.2 461.618 472.599L465.598 512.4L469.579 552.201C470.929 552.066 472.268 552 473.598 552V512ZM465.598 512.4L461.181 472.645C457.499 473.054 453.816 473.644 450.154 474.377L457.998 513.6L465.843 552.823C467.514 552.489 468.898 552.28 470.016 552.155L465.598 512.4ZM457.998 513.6H417.998V676H457.998H497.998V513.6H457.998ZM457.998 676V636H398.398V676V716H457.998V676ZM711.32 750H671.32V790H711.32V750ZM711.32 472.8L699.957 434.448L671.32 442.933V472.8H711.32ZM736.52 466.8L729.085 427.497L728.985 427.516L728.886 427.535L736.52 466.8ZM766.92 462.4L762.94 422.598L762.89 422.604L762.839 422.609L766.92 462.4ZM856.52 474.4L837.046 509.339L837.266 509.462L837.488 509.582L856.52 474.4ZM893.72 512.4L858.175 530.746L858.292 530.971L858.41 531.194L893.72 512.4ZM896.12 628L859.447 612.029L859.385 612.172L859.323 612.316L896.12 628ZM865.32 666.4L887.508 699.682L887.732 699.533L887.954 699.381L865.32 666.4ZM791.72 677.6L800.398 638.553V638.553L791.72 677.6ZM770.92 670.8L787.03 634.187L730.92 609.499V670.8H770.92ZM770.92 750V790H810.92V750H770.92ZM822.12 626L805.706 589.523L805.35 589.683L804.997 589.85L822.12 626ZM835.32 615.2L803.746 590.642L803.31 591.204L802.893 591.78L835.32 615.2ZM843.32 597.6L804.6 587.562L804.466 588.082L804.345 588.606L843.32 597.6ZM840.52 540.4L803.533 555.63L840.52 540.4ZM824.12 519.2L847.14 486.488L847.14 486.488L824.12 519.2ZM782.12 512.4L784.469 552.331L785.635 552.262L786.794 552.126L782.12 512.4ZM770.92 513.6L763.765 474.245L730.92 480.217V513.6H770.92ZM770.92 621.2H730.92V643.038L749.29 654.847L770.92 621.2ZM785.32 627.2L774.796 665.791L775.009 665.849L775.223 665.905L785.32 627.2ZM711.32 750H751.32V472.8H711.32H671.32V750H711.32ZM711.32 472.8L722.684 511.152C728.354 509.472 735.46 507.755 744.155 506.065L736.52 466.8L728.886 427.535C718.381 429.578 708.686 431.862 699.957 434.448L711.32 472.8ZM736.52 466.8L743.956 506.103C752.668 504.455 761.68 503.147 771.001 502.191L766.92 462.4L762.839 422.609C751.36 423.786 740.106 425.412 729.085 427.497L736.52 466.8ZM766.92 462.4L770.9 502.201C780.395 501.252 789.192 500.8 797.32 500.8V460.8V420.8C786.248 420.8 774.779 421.415 762.94 422.598L766.92 462.4ZM797.32 460.8V500.8C815.356 500.8 828.027 504.312 837.046 509.339L856.52 474.4L875.995 439.461C852.48 426.354 825.685 420.8 797.32 420.8V460.8ZM856.52 474.4L837.488 509.582C846.638 514.532 853.306 521.31 858.175 530.746L893.72 512.4L929.265 494.054C917.068 470.423 898.936 451.868 875.553 439.218L856.52 474.4ZM893.72 512.4L858.41 531.194C863.582 540.909 866.92 553.676 866.92 570.8H906.92H946.92C946.92 543.124 941.459 516.957 929.03 493.606L893.72 512.4ZM906.92 570.8H866.92C866.92 587.971 864.063 601.429 859.447 612.029L896.12 628L932.794 643.971C942.577 621.505 946.92 596.829 946.92 570.8H906.92ZM896.12 628L859.323 612.316C855.147 622.114 849.562 628.701 842.687 633.419L865.32 666.4L887.954 699.381C908.278 685.432 923.227 666.419 932.917 643.684L896.12 628ZM865.32 666.4L843.132 633.118C837.443 636.911 828.804 640 814.92 640V680V720C841.036 720 865.998 714.023 887.508 699.682L865.32 666.4ZM814.92 680V640C809.227 640 804.43 639.449 800.398 638.553L791.72 677.6L783.043 716.647C793.41 718.951 804.08 720 814.92 720V680ZM791.72 677.6L800.398 638.553C795.716 637.512 791.274 636.055 787.03 634.187L770.92 670.8L754.811 707.413C763.9 711.412 773.324 714.488 783.043 716.647L791.72 677.6ZM770.92 670.8H730.92V750H770.92H810.92V670.8H770.92ZM770.92 750V710H711.32V750V790H770.92V750ZM803.72 629.6V669.6C815.219 669.6 827.529 667.699 839.244 662.15L822.12 626L804.997 589.85C805.791 589.474 806.21 589.411 806.04 589.444C805.851 589.481 805.122 589.6 803.72 589.6V629.6ZM822.12 626L838.535 662.477C850.34 657.165 860.232 649.025 867.747 638.62L835.32 615.2L802.893 591.78C803.105 591.487 803.499 591.026 804.091 590.542C804.685 590.056 805.264 589.722 805.706 589.523L822.12 626ZM835.32 615.2L866.894 639.758C874.754 629.653 879.61 618.235 882.296 606.594L843.32 597.6L804.345 588.606C804.083 589.74 803.828 590.378 803.706 590.648C803.59 590.902 803.581 590.855 803.746 590.642L835.32 615.2ZM843.32 597.6L882.04 607.638C884.961 596.371 886.12 584.462 886.12 572.4H846.12H806.12C806.12 579.538 805.413 584.429 804.6 587.562L843.32 597.6ZM846.12 572.4H886.12C886.12 556.175 883.661 540.115 877.507 525.17L840.52 540.4L803.533 555.63C804.846 558.818 806.12 564.092 806.12 572.4H846.12ZM840.52 540.4L877.507 525.17C871.217 509.892 861.257 496.422 847.14 486.488L824.12 519.2L801.101 551.912C801.384 552.111 802.357 552.774 803.533 555.63L840.52 540.4ZM824.12 519.2L847.14 486.488C831.723 475.639 814.082 471.6 796.92 471.6V511.6V551.6C799.32 551.6 800.638 551.88 801.156 552.024C801.608 552.151 801.476 552.176 801.101 551.912L824.12 519.2ZM796.92 511.6V471.6C790.278 471.6 783.763 471.931 777.447 472.674L782.12 512.4L786.794 552.126C789.544 551.802 792.896 551.6 796.92 551.6V511.6ZM782.12 512.4L779.771 472.469C774.366 472.787 768.88 473.315 763.765 474.245L770.92 513.6L778.076 552.955C778.828 552.818 780.808 552.546 784.469 552.331L782.12 512.4ZM770.92 513.6H730.92V621.2H770.92H810.92V513.6H770.92ZM770.92 621.2L749.29 654.847C757.456 660.097 766.344 663.486 774.796 665.791L785.32 627.2L795.845 588.609C794.296 588.187 793.284 587.818 792.705 587.577C792.12 587.333 792.133 587.285 792.551 587.553L770.92 621.2ZM785.32 627.2L775.223 665.905C784.543 668.336 794.067 669.6 803.72 669.6V629.6V589.6C801.107 589.6 798.365 589.264 795.417 588.495L785.32 627.2ZM1004.73 680L1003.8 719.989L1038.34 720.793L1044.16 686.732L1004.73 680ZM951.927 670.4L934.358 706.335L934.513 706.411L934.668 706.485L951.927 670.4ZM927.127 645.6L889.863 660.142L890.08 660.697L890.313 661.246L927.127 645.6ZM920.727 375.2L914.366 335.709L880.727 341.127V375.2H920.727ZM980.327 365.6H1020.33V318.641L973.966 326.109L980.327 365.6ZM985.927 620L951.759 640.798L952.082 641.329L952.422 641.851L985.927 620ZM1013.13 630.8L1052.56 637.532L1059.95 594.22L1016.14 590.913L1013.13 630.8ZM1004.73 680L1005.66 640.011C985.011 639.531 973.994 636.615 969.185 634.315L951.927 670.4L934.668 706.485C954.392 715.919 978.576 719.403 1003.8 719.989L1004.73 680ZM951.927 670.4L969.495 634.465C964.743 632.142 964.141 630.427 963.94 629.954L927.127 645.6L890.313 661.246C899.179 682.106 915.11 696.925 934.358 706.335L951.927 670.4ZM927.127 645.6L964.39 631.058C962.35 625.832 960.727 618.056 960.727 606.8H920.727H880.727C880.727 625.411 883.37 643.502 889.863 660.142L927.127 645.6ZM920.727 606.8H960.727V375.2H920.727H880.727V606.8H920.727ZM920.727 375.2L927.088 414.691L986.688 405.091L980.327 365.6L973.966 326.109L914.366 335.709L920.727 375.2ZM980.327 365.6H940.327V594.8H980.327H1020.33V365.6H980.327ZM980.327 594.8H940.327C940.327 609.477 942.789 626.062 951.759 640.798L985.927 620L1020.09 599.202C1020.91 600.54 1020.94 601.166 1020.77 600.423C1020.6 599.654 1020.33 597.879 1020.33 594.8H980.327ZM985.927 620L952.422 641.851C967.478 664.936 994.25 669.489 1010.12 670.687L1013.13 630.8L1016.14 590.913C1013.93 590.747 1012.38 590.514 1011.36 590.31C1010.34 590.104 1010.12 589.977 1010.49 590.123C1011.12 590.374 1015.63 592.327 1019.43 598.149L985.927 620ZM1013.13 630.8L973.697 624.068L965.297 673.268L1004.73 680L1044.16 686.732L1052.56 637.532L1013.13 630.8Z" fill="#097500" mask="url(#path-7-outside-2_3327_46)"/>
</g>
<defs>
<linearGradient id="paint0_linear_3327_46" x1="512" y1="0" x2="512" y2="1024" gradientUnits="userSpaceOnUse">
<stop offset="0.399038" stop-color="#0C0016"/>
<stop offset="1" stop-color="#13FF00"/>
</linearGradient>
</defs>
</svg>
