<svg width="128" height="128" viewBox="0 0 128 128" fill="none" xmlns="http://www.w3.org/2000/svg">

<g id="nsmpl 2">
<path id="rect2" d="M102 4H26C13.8497 4 4 13.8497 4 26V102C4 114.15 13.8497 124 26 124H102C114.15 124 124 114.15 124 102V26C124 13.8497 114.15 4 102 4Z" fill="url(#paint0_linear_3311_2)"/>
<g id="g5">
<path id="path3" d="M22 68V82H28" stroke="#A6E3A1" stroke-width="3.5" stroke-linecap="round" stroke-linejoin="round"/>
<path id="path4" d="M30 77L36 62L42 82L48 58L54 82L60 66L66 82L72 62L78 82L84 70L90 82L96 66" stroke="#A6E3A1" stroke-width="3.5" stroke-linecap="round" stroke-linejoin="round"/>
<path id="path5" d="M100 82H106V68" stroke="#A6E3A1" stroke-width="3.5" stroke-linecap="round" stroke-linejoin="round"/>
</g>
<path id="nsmpl" d="M20.5369 64V47.744C21.3475 47.5093 22.3929 47.296 23.6729 47.104C24.9529 46.8907 26.2969 46.784 27.7049 46.784C29.6249 46.784 31.1182 47.1147 32.1849 47.776C33.2515 48.416 33.9982 49.312 34.4249 50.464C34.8515 51.616 35.0649 52.96 35.0649 54.496V64H30.2969V55.072C30.2969 54.048 30.2115 53.2267 30.0409 52.608C29.8702 51.9893 29.5715 51.5413 29.1449 51.264C28.7395 50.9867 28.1635 50.848 27.4169 50.848C27.0755 50.848 26.7129 50.8693 26.3289 50.912C25.9449 50.9333 25.6035 50.9653 25.3049 51.008V64H20.5369ZM44.1806 64.448C42.6873 64.448 41.4393 64.32 40.4366 64.064C39.4553 63.808 38.7726 63.5947 38.3886 63.424L39.1886 59.552C39.9993 59.872 40.8313 60.128 41.6846 60.32C42.538 60.4907 43.3806 60.576 44.2126 60.576C45.0873 60.576 45.706 60.4907 46.0686 60.32C46.4313 60.1493 46.6126 59.8187 46.6126 59.328C46.6126 59.072 46.506 58.848 46.2926 58.656C46.0793 58.4427 45.7593 58.2293 45.3326 58.016C44.9273 57.8027 44.4046 57.5787 43.7646 57.344C42.7833 56.96 41.9193 56.5547 41.1726 56.128C40.426 55.7013 39.85 55.1573 39.4446 54.496C39.0393 53.8133 38.8366 52.928 38.8366 51.84C38.8366 50.7733 39.1033 49.8667 39.6366 49.12C40.17 48.352 40.9273 47.7653 41.9086 47.36C42.89 46.9333 44.0633 46.72 45.4286 46.72C46.4526 46.72 47.434 46.816 48.3726 47.008C49.3113 47.1787 50.058 47.3707 50.6126 47.584L49.7806 51.296C49.226 51.104 48.618 50.9333 47.9566 50.784C47.3166 50.6347 46.5913 50.56 45.7806 50.56C45.034 50.56 44.4686 50.6667 44.0846 50.88C43.722 51.072 43.5406 51.3813 43.5406 51.808C43.5406 52.0427 43.6046 52.2667 43.7326 52.48C43.8606 52.672 44.106 52.864 44.4686 53.056C44.8313 53.248 45.3646 53.472 46.0686 53.728C47.4766 54.24 48.554 54.752 49.3006 55.264C50.0686 55.776 50.602 56.3627 50.9006 57.024C51.1993 57.664 51.3486 58.4533 51.3486 59.392C51.3486 60.5013 51.0713 61.4293 50.5166 62.176C49.962 62.9227 49.1513 63.488 48.0846 63.872C47.018 64.256 45.7166 64.448 44.1806 64.448ZM54.9119 64V47.744C55.7439 47.5093 56.7892 47.296 58.0479 47.104C59.3279 46.8907 60.5865 46.784 61.8239 46.784C63.0399 46.784 64.0212 46.944 64.7679 47.264C65.5359 47.5627 66.1652 47.9253 66.6559 48.352C67.1252 48.0107 67.6265 47.7333 68.1599 47.52C68.7145 47.2853 69.2799 47.104 69.8559 46.976C70.4319 46.848 70.9652 46.784 71.4559 46.784C73.2479 46.784 74.6239 47.1147 75.5839 47.776C76.5652 48.416 77.2372 49.312 77.5999 50.464C77.9839 51.616 78.1759 52.96 78.1759 54.496V64H73.4079V55.072C73.4079 54.048 73.3225 53.2267 73.1519 52.608C72.9812 51.9893 72.7039 51.5413 72.3199 51.264C71.9359 50.9867 71.4239 50.848 70.7839 50.848C70.6132 50.848 70.3892 50.88 70.1119 50.944C69.8559 50.9867 69.5892 51.0613 69.3119 51.168C69.0345 51.2747 68.7892 51.392 68.5759 51.52C68.7252 52.0107 68.8212 52.5333 68.8639 53.088C68.9065 53.6213 68.9279 54.1973 68.9279 54.816V64H64.1599V55.072C64.1599 54.048 64.0745 53.2267 63.9039 52.608C63.7332 51.9893 63.4559 51.5413 63.0719 51.264C62.6879 50.9867 62.1759 50.848 61.5359 50.848C61.3439 50.848 61.1412 50.8587 60.9279 50.88C60.7145 50.88 60.5012 50.8907 60.2879 50.912C60.0959 50.9333 59.8932 50.9653 59.6799 51.008V64H54.9119ZM82.5056 69.92V47.744C83.0816 47.5733 83.7536 47.4133 84.5216 47.264C85.311 47.1147 86.1216 46.9973 86.9536 46.912C87.807 46.8267 88.6176 46.784 89.3856 46.784C91.2416 46.784 92.8203 47.1467 94.1216 47.872C95.423 48.576 96.415 49.5893 97.0976 50.912C97.8016 52.2347 98.1536 53.792 98.1536 55.584C98.1536 57.312 97.8656 58.8373 97.2896 60.16C96.735 61.4613 95.9136 62.4853 94.8256 63.232C93.7376 63.9573 92.3936 64.32 90.7936 64.32C90.1323 64.32 89.5136 64.256 88.9376 64.128C88.3616 64 87.807 63.8187 87.2736 63.584V69.92H82.5056ZM89.8976 60.288C90.4736 60.288 90.9643 60.192 91.3696 60C91.7963 59.808 92.1483 59.52 92.4256 59.136C92.7243 58.752 92.9376 58.2827 93.0656 57.728C93.215 57.152 93.2896 56.48 93.2896 55.712C93.2896 54.7307 93.1403 53.8773 92.8416 53.152C92.543 52.4267 92.1056 51.8613 91.5296 51.456C90.9536 51.0507 90.2283 50.848 89.3536 50.848C88.927 50.848 88.5323 50.8693 88.1696 50.912C87.807 50.9333 87.5083 50.9653 87.2736 51.008V59.616C87.5723 59.808 87.9563 59.968 88.4256 60.096C88.9163 60.224 89.407 60.288 89.8976 60.288ZM108.538 64.32C106.703 64.2773 105.295 64.0213 104.314 63.552C103.354 63.0827 102.693 62.4213 102.33 61.568C101.989 60.6933 101.818 59.6587 101.818 58.464V39.936L106.586 39.168V57.504C106.586 58.3573 106.735 59.0293 107.034 59.52C107.354 60.0107 108.079 60.2987 109.21 60.384L108.538 64.32Z" fill="#89B4FA"/>
</g>
<defs>
<linearGradient id="paint0_linear_3311_2" x1="4" y1="4" x2="4" y2="124" gradientUnits="userSpaceOnUse">
<stop stop-color="#313244"/>
<stop offset="0.295012" stop-color="#09090F"/>
</linearGradient>
</defs>
</svg>
