<svg width="1772" height="498" viewBox="0 0 1772 498" fill="none" xmlns="http://www.w3.org/2000/svg">
<circle cx="220" cy="278" r="200" fill="#D9D9D9" stroke="white" stroke-width="40"/>
<circle cx="220" cy="278" r="155" fill="#D9D9D9" stroke="#DFFFDC" stroke-width="20"/>
<circle cx="220.499" cy="277.5" r="68.5" fill="#8AFF80"/>
<mask id="path-4-outside-1_3381_38" maskUnits="userSpaceOnUse" x="470" y="42" width="1024" height="428" fill="black">
<rect fill="white" x="470" y="42" width="1024" height="428"/>
<path d="M490 376V172.8C500.133 169.867 513.2 167.2 529.2 164.8C545.2 162.133 562 160.8 579.6 160.8C603.6 160.8 622.267 164.933 635.6 173.2C648.933 181.2 658.267 192.4 663.6 206.8C668.933 221.2 671.6 238 671.6 257.2V376H612V264.4C612 251.6 610.933 241.333 608.8 233.6C606.667 225.867 602.933 220.267 597.6 216.8C592.533 213.333 585.333 211.6 576 211.6C571.733 211.6 567.2 211.867 562.4 212.4C557.6 212.667 553.333 213.067 549.6 213.6V376H490ZM753.547 381.6C734.88 381.6 719.28 380 706.747 376.8C694.48 373.6 685.947 370.933 681.147 368.8L691.147 320.4C701.28 324.4 711.68 327.6 722.347 330C733.013 332.133 743.547 333.2 753.947 333.2C764.88 333.2 772.613 332.133 777.147 330C781.68 327.867 783.947 323.733 783.947 317.6C783.947 314.4 782.613 311.6 779.947 309.2C777.28 306.533 773.28 303.867 767.947 301.2C762.88 298.533 756.347 295.733 748.347 292.8C736.08 288 725.28 282.933 715.947 277.6C706.613 272.267 699.413 265.467 694.347 257.2C689.28 248.667 686.747 237.6 686.747 224C686.747 210.667 690.08 199.333 696.747 190C703.413 180.4 712.88 173.067 725.147 168C737.413 162.667 752.08 160 769.147 160C781.947 160 794.213 161.2 805.947 163.6C817.68 165.733 827.013 168.133 833.947 170.8L823.547 217.2C816.613 214.8 809.013 212.667 800.747 210.8C792.747 208.933 783.68 208 773.547 208C764.213 208 757.147 209.333 752.347 212C747.813 214.4 745.547 218.267 745.547 223.6C745.547 226.533 746.347 229.333 747.947 232C749.547 234.4 752.613 236.8 757.147 239.2C761.68 241.6 768.347 244.4 777.147 247.6C794.747 254 808.213 260.4 817.547 266.8C827.147 273.2 833.813 280.533 837.547 288.8C841.28 296.8 843.147 306.667 843.147 318.4C843.147 332.267 839.68 343.867 832.747 353.2C825.813 362.533 815.68 369.6 802.347 374.4C789.013 379.2 772.747 381.6 753.547 381.6ZM855.687 376V172.8C866.087 169.867 879.154 167.2 894.887 164.8C910.887 162.133 926.621 160.8 942.087 160.8C957.287 160.8 969.554 162.8 978.887 166.8C988.487 170.533 996.354 175.067 1002.49 180.4C1008.35 176.133 1014.62 172.667 1021.29 170C1028.22 167.067 1035.29 164.8 1042.49 163.2C1049.69 161.6 1056.35 160.8 1062.49 160.8C1084.89 160.8 1102.09 164.933 1114.09 173.2C1126.35 181.2 1134.75 192.4 1139.29 206.8C1144.09 221.2 1146.49 238 1146.49 257.2V376H1086.89V264.4C1086.89 251.6 1085.82 241.333 1083.69 233.6C1081.55 225.867 1078.09 220.267 1073.29 216.8C1068.49 213.333 1062.09 211.6 1054.09 211.6C1051.95 211.6 1049.15 212 1045.69 212.8C1042.49 213.333 1039.15 214.267 1035.69 215.6C1032.22 216.933 1029.15 218.4 1026.49 220C1028.35 226.133 1029.55 232.667 1030.09 239.6C1030.62 246.267 1030.89 253.467 1030.89 261.2V376H971.287V264.4C971.287 251.6 970.221 241.333 968.087 233.6C965.954 225.867 962.487 220.267 957.687 216.8C952.887 213.333 946.487 211.6 938.487 211.6C936.087 211.6 933.554 211.733 930.887 212C928.221 212 925.554 212.133 922.887 212.4C920.487 212.667 917.954 213.067 915.287 213.6V376H855.687ZM1168.61 450V172.8C1175.81 170.667 1184.21 168.667 1193.81 166.8C1203.68 164.933 1213.81 163.467 1224.21 162.4C1234.88 161.333 1245.01 160.8 1254.61 160.8C1277.81 160.8 1297.54 165.333 1313.81 174.4C1330.08 183.2 1342.48 195.867 1351.01 212.4C1359.81 228.933 1364.21 248.4 1364.21 270.8C1364.21 292.4 1360.61 311.467 1353.41 328C1346.48 344.267 1336.21 357.067 1322.61 366.4C1309.01 375.467 1292.21 380 1272.21 380C1263.94 380 1256.21 379.2 1249.01 377.6C1241.81 376 1234.88 373.733 1228.21 370.8V450H1168.61ZM1261.01 329.6C1268.21 329.6 1274.34 328.4 1279.41 326C1284.74 323.6 1289.14 320 1292.61 315.2C1296.34 310.4 1299.01 304.533 1300.61 297.6C1302.48 290.4 1303.41 282 1303.41 272.4C1303.41 260.133 1301.54 249.467 1297.81 240.4C1294.08 231.333 1288.61 224.267 1281.41 219.2C1274.21 214.133 1265.14 211.6 1254.21 211.6C1248.88 211.6 1243.94 211.867 1239.41 212.4C1234.88 212.667 1231.14 213.067 1228.21 213.6V321.2C1231.94 323.6 1236.74 325.6 1242.61 327.2C1248.74 328.8 1254.88 329.6 1261.01 329.6ZM1462.02 380C1439.08 379.467 1421.48 376.267 1409.22 370.4C1397.22 364.533 1388.95 356.267 1384.42 345.6C1380.15 334.667 1378.02 321.733 1378.02 306.8V75.2L1437.62 65.6V294.8C1437.62 305.467 1439.48 313.867 1443.22 320C1447.22 326.133 1456.28 329.733 1470.42 330.8L1462.02 380Z"/>
</mask>
<path d="M490 376V172.8C500.133 169.867 513.2 167.2 529.2 164.8C545.2 162.133 562 160.8 579.6 160.8C603.6 160.8 622.267 164.933 635.6 173.2C648.933 181.2 658.267 192.4 663.6 206.8C668.933 221.2 671.6 238 671.6 257.2V376H612V264.4C612 251.6 610.933 241.333 608.8 233.6C606.667 225.867 602.933 220.267 597.6 216.8C592.533 213.333 585.333 211.6 576 211.6C571.733 211.6 567.2 211.867 562.4 212.4C557.6 212.667 553.333 213.067 549.6 213.6V376H490ZM753.547 381.6C734.88 381.6 719.28 380 706.747 376.8C694.48 373.6 685.947 370.933 681.147 368.8L691.147 320.4C701.28 324.4 711.68 327.6 722.347 330C733.013 332.133 743.547 333.2 753.947 333.2C764.88 333.2 772.613 332.133 777.147 330C781.68 327.867 783.947 323.733 783.947 317.6C783.947 314.4 782.613 311.6 779.947 309.2C777.28 306.533 773.28 303.867 767.947 301.2C762.88 298.533 756.347 295.733 748.347 292.8C736.08 288 725.28 282.933 715.947 277.6C706.613 272.267 699.413 265.467 694.347 257.2C689.28 248.667 686.747 237.6 686.747 224C686.747 210.667 690.08 199.333 696.747 190C703.413 180.4 712.88 173.067 725.147 168C737.413 162.667 752.08 160 769.147 160C781.947 160 794.213 161.2 805.947 163.6C817.68 165.733 827.013 168.133 833.947 170.8L823.547 217.2C816.613 214.8 809.013 212.667 800.747 210.8C792.747 208.933 783.68 208 773.547 208C764.213 208 757.147 209.333 752.347 212C747.813 214.4 745.547 218.267 745.547 223.6C745.547 226.533 746.347 229.333 747.947 232C749.547 234.4 752.613 236.8 757.147 239.2C761.68 241.6 768.347 244.4 777.147 247.6C794.747 254 808.213 260.4 817.547 266.8C827.147 273.2 833.813 280.533 837.547 288.8C841.28 296.8 843.147 306.667 843.147 318.4C843.147 332.267 839.68 343.867 832.747 353.2C825.813 362.533 815.68 369.6 802.347 374.4C789.013 379.2 772.747 381.6 753.547 381.6ZM855.687 376V172.8C866.087 169.867 879.154 167.2 894.887 164.8C910.887 162.133 926.621 160.8 942.087 160.8C957.287 160.8 969.554 162.8 978.887 166.8C988.487 170.533 996.354 175.067 1002.49 180.4C1008.35 176.133 1014.62 172.667 1021.29 170C1028.22 167.067 1035.29 164.8 1042.49 163.2C1049.69 161.6 1056.35 160.8 1062.49 160.8C1084.89 160.8 1102.09 164.933 1114.09 173.2C1126.35 181.2 1134.75 192.4 1139.29 206.8C1144.09 221.2 1146.49 238 1146.49 257.2V376H1086.89V264.4C1086.89 251.6 1085.82 241.333 1083.69 233.6C1081.55 225.867 1078.09 220.267 1073.29 216.8C1068.49 213.333 1062.09 211.6 1054.09 211.6C1051.95 211.6 1049.15 212 1045.69 212.8C1042.49 213.333 1039.15 214.267 1035.69 215.6C1032.22 216.933 1029.15 218.4 1026.49 220C1028.35 226.133 1029.55 232.667 1030.09 239.6C1030.62 246.267 1030.89 253.467 1030.89 261.2V376H971.287V264.4C971.287 251.6 970.221 241.333 968.087 233.6C965.954 225.867 962.487 220.267 957.687 216.8C952.887 213.333 946.487 211.6 938.487 211.6C936.087 211.6 933.554 211.733 930.887 212C928.221 212 925.554 212.133 922.887 212.4C920.487 212.667 917.954 213.067 915.287 213.6V376H855.687ZM1168.61 450V172.8C1175.81 170.667 1184.21 168.667 1193.81 166.8C1203.68 164.933 1213.81 163.467 1224.21 162.4C1234.88 161.333 1245.01 160.8 1254.61 160.8C1277.81 160.8 1297.54 165.333 1313.81 174.4C1330.08 183.2 1342.48 195.867 1351.01 212.4C1359.81 228.933 1364.21 248.4 1364.21 270.8C1364.21 292.4 1360.61 311.467 1353.41 328C1346.48 344.267 1336.21 357.067 1322.61 366.4C1309.01 375.467 1292.21 380 1272.21 380C1263.94 380 1256.21 379.2 1249.01 377.6C1241.81 376 1234.88 373.733 1228.21 370.8V450H1168.61ZM1261.01 329.6C1268.21 329.6 1274.34 328.4 1279.41 326C1284.74 323.6 1289.14 320 1292.61 315.2C1296.34 310.4 1299.01 304.533 1300.61 297.6C1302.48 290.4 1303.41 282 1303.41 272.4C1303.41 260.133 1301.54 249.467 1297.81 240.4C1294.08 231.333 1288.61 224.267 1281.41 219.2C1274.21 214.133 1265.14 211.6 1254.21 211.6C1248.88 211.6 1243.94 211.867 1239.41 212.4C1234.88 212.667 1231.14 213.067 1228.21 213.6V321.2C1231.94 323.6 1236.74 325.6 1242.61 327.2C1248.74 328.8 1254.88 329.6 1261.01 329.6ZM1462.02 380C1439.08 379.467 1421.48 376.267 1409.22 370.4C1397.22 364.533 1388.95 356.267 1384.42 345.6C1380.15 334.667 1378.02 321.733 1378.02 306.8V75.2L1437.62 65.6V294.8C1437.62 305.467 1439.48 313.867 1443.22 320C1447.22 326.133 1456.28 329.733 1470.42 330.8L1462.02 380Z" fill="black"/>
<path d="M490 376H470V396H490V376ZM490 172.8L484.439 153.589L470 157.768V172.8H490ZM529.2 164.8L532.167 184.579L532.327 184.555L532.488 184.528L529.2 164.8ZM635.6 173.2L625.061 190.198L625.185 190.275L625.31 190.35L635.6 173.2ZM663.6 206.8L644.845 213.746V213.746L663.6 206.8ZM671.6 376V396H691.6V376H671.6ZM612 376H592V396H612V376ZM608.8 233.6L589.52 238.919L589.52 238.919L608.8 233.6ZM597.6 216.8L586.306 233.306L586.502 233.44L586.7 233.569L597.6 216.8ZM562.4 212.4L563.509 232.369L564.06 232.339L564.609 232.278L562.4 212.4ZM549.6 213.6L546.771 193.801L529.6 196.254V213.6H549.6ZM549.6 376V396H569.6V376H549.6ZM490 376H510V172.8H490H470V376H490ZM490 172.8L495.561 192.011C504.521 189.418 516.634 186.909 532.167 184.579L529.2 164.8L526.233 145.021C509.766 147.491 495.745 150.316 484.439 153.589L490 172.8ZM529.2 164.8L532.488 184.528C547.314 182.057 563.009 180.8 579.6 180.8V160.8V140.8C560.99 140.8 543.086 142.21 525.912 145.072L529.2 164.8ZM579.6 160.8V180.8C601.7 180.8 616.149 184.673 625.061 190.198L635.6 173.2L646.139 156.202C628.384 145.194 605.5 140.8 579.6 140.8V160.8ZM635.6 173.2L625.31 190.35C634.797 196.042 641.113 203.669 644.845 213.746L663.6 206.8L682.355 199.854C675.421 181.131 663.069 166.358 645.89 156.05L635.6 173.2ZM663.6 206.8L644.845 213.746C649.178 225.445 651.6 239.801 651.6 257.2H671.6H691.6C691.6 236.199 688.689 216.955 682.355 199.854L663.6 206.8ZM671.6 257.2H651.6V376H671.6H691.6V257.2H671.6ZM671.6 376V356H612V376V396H671.6V376ZM612 376H632V264.4H612H592V376H612ZM612 264.4H632C632 250.734 630.888 238.46 628.08 228.281L608.8 233.6L589.52 238.919C590.979 244.206 592 252.466 592 264.4H612ZM608.8 233.6L628.08 228.281C624.998 217.109 618.918 206.803 608.5 200.031L597.6 216.8L586.7 233.569C586.948 233.73 588.336 234.625 589.52 238.919L608.8 233.6ZM597.6 216.8L608.894 200.294C599.183 193.65 587.401 191.6 576 191.6V211.6V231.6C583.265 231.6 585.883 233.017 586.306 233.306L597.6 216.8ZM576 211.6V191.6C570.907 191.6 565.631 191.918 560.191 192.522L562.4 212.4L564.609 232.278C568.769 231.815 572.56 231.6 576 231.6V211.6ZM562.4 212.4L561.29 192.431C556.063 192.721 551.205 193.168 546.771 193.801L549.6 213.6L552.428 233.399C555.462 232.966 559.137 232.612 563.509 232.369L562.4 212.4ZM549.6 213.6H529.6V376H549.6H569.6V213.6H549.6ZM549.6 376V356H490V376V396H549.6V376ZM706.747 376.8L701.698 396.152L701.749 396.165L701.799 396.178L706.747 376.8ZM681.147 368.8L661.56 364.753L658.3 380.532L673.024 387.076L681.147 368.8ZM691.147 320.4L698.49 301.797L676.372 293.066L671.56 316.353L691.147 320.4ZM722.347 330L717.957 349.512L718.19 349.565L718.424 349.612L722.347 330ZM777.147 330L785.663 348.096H785.663L777.147 330ZM779.947 309.2L765.805 323.342L766.177 323.714L766.567 324.066L779.947 309.2ZM767.947 301.2L758.632 318.898L758.816 318.995L759.003 319.089L767.947 301.2ZM748.347 292.8L741.059 311.425L741.259 311.503L741.462 311.578L748.347 292.8ZM715.947 277.6L706.024 294.965H706.024L715.947 277.6ZM694.347 257.2L677.15 267.411L677.221 267.531L677.295 267.651L694.347 257.2ZM696.747 190L713.021 201.625L713.099 201.517L713.174 201.408L696.747 190ZM725.147 168L732.782 186.485L732.952 186.415L733.121 186.341L725.147 168ZM805.947 163.6L801.939 183.194L802.154 183.238L802.369 183.277L805.947 163.6ZM833.947 170.8L853.463 175.174L857.238 158.33L841.126 152.133L833.947 170.8ZM823.547 217.2L817.005 236.1L838.165 243.425L843.063 221.574L823.547 217.2ZM800.747 210.8L796.202 230.277L796.272 230.293L796.342 230.309L800.747 210.8ZM752.347 212L761.705 229.676L761.883 229.581L762.06 229.483L752.347 212ZM747.947 232L730.797 242.29L731.042 242.698L731.306 243.094L747.947 232ZM757.147 239.2L766.505 221.524V221.524L757.147 239.2ZM777.147 247.6L770.312 266.396L777.147 247.6ZM817.547 266.8L806.236 283.295L806.344 283.368L806.453 283.441L817.547 266.8ZM837.547 288.8L819.319 297.032L819.371 297.145L819.423 297.258L837.547 288.8ZM832.747 353.2L816.692 341.273V341.274L832.747 353.2ZM802.347 374.4L795.572 355.582H795.572L802.347 374.4ZM753.547 381.6V361.6C735.881 361.6 722.071 360.071 711.694 357.422L706.747 376.8L701.799 396.178C716.489 399.929 733.879 401.6 753.547 401.6V381.6ZM706.747 376.8L711.795 357.448C699.524 354.247 692.42 351.924 689.27 350.524L681.147 368.8L673.024 387.076C679.473 389.943 689.436 392.953 701.698 396.152L706.747 376.8ZM681.147 368.8L700.733 372.847L710.733 324.447L691.147 320.4L671.56 316.353L661.56 364.753L681.147 368.8ZM691.147 320.4L683.803 339.003C694.9 343.383 706.287 346.887 717.957 349.512L722.347 330L726.737 310.488C717.073 308.313 707.661 305.417 698.49 301.797L691.147 320.4ZM722.347 330L718.424 349.612C730.323 351.991 742.171 353.2 753.947 353.2V333.2V313.2C744.923 313.2 735.703 312.275 726.269 310.388L722.347 330ZM753.947 333.2V353.2C765.143 353.2 776.799 352.268 785.663 348.096L777.147 330L768.631 311.904C768.917 311.769 768.063 312.195 765.214 312.588C762.531 312.958 758.831 313.2 753.947 313.2V333.2ZM777.147 330L785.663 348.096C791.502 345.348 796.484 340.933 799.783 334.917C802.947 329.147 803.947 323.046 803.947 317.6H783.947H763.947C763.947 318.288 763.813 317.32 764.711 315.683C765.166 314.853 765.792 314.033 766.568 313.318C767.335 312.611 768.076 312.165 768.631 311.904L777.147 330ZM783.947 317.6H803.947C803.947 308.009 799.64 300.016 793.326 294.334L779.947 309.2L766.567 324.066C766.248 323.778 765.518 323.018 764.89 321.699C764.236 320.326 763.947 318.877 763.947 317.6H783.947ZM779.947 309.2L794.089 295.058C789.283 290.252 783.166 286.449 776.891 283.311L767.947 301.2L759.003 319.089C763.395 321.285 765.277 322.814 765.805 323.342L779.947 309.2ZM767.947 301.2L777.262 283.502C771.131 280.275 763.705 277.129 755.232 274.022L748.347 292.8L741.462 311.578C748.989 314.337 754.629 316.792 758.632 318.898L767.947 301.2ZM748.347 292.8L755.635 274.175C744.082 269.654 734.193 264.991 725.87 260.235L715.947 277.6L706.024 294.965C716.367 300.875 728.078 306.346 741.059 311.425L748.347 292.8ZM715.947 277.6L725.87 260.235C719.132 256.385 714.523 251.846 711.399 246.749L694.347 257.2L677.295 267.651C684.304 279.087 694.095 288.148 706.024 294.965L715.947 277.6ZM694.347 257.2L711.544 246.989C708.87 242.485 706.747 235.284 706.747 224H686.747H666.747C666.747 239.916 669.691 254.848 677.15 267.411L694.347 257.2ZM686.747 224H706.747C706.747 214.136 709.155 207.038 713.021 201.625L696.747 190L680.472 178.375C671.005 191.628 666.747 207.198 666.747 224H686.747ZM696.747 190L713.174 201.408C717.364 195.375 723.57 190.29 732.782 186.485L725.147 168L717.512 149.515C702.19 155.843 689.463 165.425 680.319 178.592L696.747 190ZM725.147 168L733.121 186.341C742.28 182.359 754.096 180 769.147 180V160V140C750.064 140 732.547 142.974 717.172 149.659L725.147 168ZM769.147 160V180C780.692 180 791.611 181.082 801.939 183.194L805.947 163.6L809.955 144.006C796.816 141.318 783.201 140 769.147 140V160ZM805.947 163.6L802.369 183.277C813.515 185.304 821.482 187.434 826.767 189.467L833.947 170.8L841.126 152.133C832.544 148.832 821.846 146.163 809.524 143.923L805.947 163.6ZM833.947 170.8L814.431 166.426L804.031 212.826L823.547 217.2L843.063 221.574L853.463 175.174L833.947 170.8ZM823.547 217.2L830.089 198.3C822.358 195.624 814.034 193.297 805.152 191.291L800.747 210.8L796.342 230.309C803.993 232.037 810.869 233.976 817.005 236.1L823.547 217.2ZM800.747 210.8L805.291 191.323C795.503 189.039 784.87 188 773.547 188V208V228C782.49 228 789.99 228.827 796.202 230.277L800.747 210.8ZM773.547 208V188C762.9 188 751.81 189.419 742.634 194.517L752.347 212L762.06 229.483C762.059 229.484 762.111 229.454 762.228 229.404C762.344 229.353 762.519 229.284 762.76 229.202C763.25 229.037 763.966 228.84 764.955 228.653C766.967 228.274 769.779 228 773.547 228V208ZM752.347 212L742.989 194.324C737.924 197.006 733.264 201.005 729.993 206.586C726.747 212.123 725.547 218.056 725.547 223.6H745.547H765.547C765.547 223.81 765.48 225.143 764.501 226.814C763.496 228.528 762.237 229.394 761.705 229.676L752.347 212ZM745.547 223.6H725.547C725.547 230.379 727.449 236.71 730.797 242.29L747.947 232L765.097 221.71C765.136 221.776 765.265 222.013 765.377 222.406C765.492 222.806 765.547 223.222 765.547 223.6H745.547ZM747.947 232L731.306 243.094C735.677 249.652 742.279 253.959 747.789 256.876L757.147 239.2L766.505 221.524C764.975 220.714 764.137 220.135 763.773 219.85C763.606 219.719 763.624 219.716 763.762 219.858C763.899 219.999 764.212 220.342 764.588 220.906L747.947 232ZM757.147 239.2L747.789 256.876C753.544 259.923 761.228 263.093 770.312 266.396L777.147 247.6L783.982 228.804C775.466 225.707 769.816 223.277 766.505 221.524L757.147 239.2ZM777.147 247.6L770.312 266.396C787.216 272.543 798.9 278.264 806.236 283.295L817.547 266.8L828.857 250.305C817.527 242.536 802.277 235.457 783.982 228.804L777.147 247.6ZM817.547 266.8L806.453 283.441C813.773 288.321 817.497 292.997 819.319 297.032L837.547 288.8L855.774 280.568C850.13 268.07 840.52 258.079 828.641 250.159L817.547 266.8ZM837.547 288.8L819.423 297.258C821.584 301.889 823.147 308.673 823.147 318.4H843.147H863.147C863.147 304.66 860.976 291.711 855.67 280.342L837.547 288.8ZM843.147 318.4H823.147C823.147 328.822 820.598 336.015 816.692 341.273L832.747 353.2L848.802 365.126C858.762 351.718 863.147 335.711 863.147 318.4H843.147ZM832.747 353.2L816.692 341.274C812.576 346.814 806.02 351.821 795.572 355.582L802.347 374.4L809.121 393.218C825.341 387.379 839.051 378.253 848.802 365.126L832.747 353.2ZM802.347 374.4L795.572 355.582C785.031 359.377 771.203 361.6 753.547 361.6V381.6V401.6C774.291 401.6 792.996 399.023 809.121 393.218L802.347 374.4ZM855.687 376H835.687V396H855.687V376ZM855.687 172.8L850.258 153.551L835.687 157.661V172.8H855.687ZM894.887 164.8L897.903 184.571L898.039 184.551L898.175 184.528L894.887 164.8ZM978.887 166.8L971.009 185.183L971.322 185.317L971.638 185.44L978.887 166.8ZM1002.49 180.4L989.364 195.492L1001.38 205.938L1014.25 196.575L1002.49 180.4ZM1021.29 170L1028.72 188.57L1028.9 188.496L1029.08 188.419L1021.29 170ZM1042.49 163.2L1046.83 182.724H1046.83L1042.49 163.2ZM1114.09 173.2L1102.74 189.67L1102.95 189.814L1103.16 189.952L1114.09 173.2ZM1139.29 206.8L1120.21 212.806L1120.26 212.966L1120.31 213.125L1139.29 206.8ZM1146.49 376V396H1166.49V376H1146.49ZM1086.89 376H1066.89V396H1086.89V376ZM1083.69 233.6L1102.97 228.281V228.281L1083.69 233.6ZM1073.29 216.8L1085 200.586V200.586L1073.29 216.8ZM1045.69 212.8L1048.98 232.528L1049.58 232.426L1050.18 232.288L1045.69 212.8ZM1026.49 220L1016.2 202.85L1002.81 210.884L1007.35 225.823L1026.49 220ZM1030.09 239.6L1010.15 241.134L1010.15 241.164L1010.15 241.195L1030.09 239.6ZM1030.89 376V396H1050.89V376H1030.89ZM971.287 376H951.287V396H971.287V376ZM968.087 233.6L948.808 238.919V238.919L968.087 233.6ZM957.687 216.8L969.397 200.586L969.397 200.586L957.687 216.8ZM930.887 212V232H931.885L932.877 231.901L930.887 212ZM922.887 212.4L920.897 192.499L920.788 192.51L920.679 192.522L922.887 212.4ZM915.287 213.6L911.365 193.988L895.287 197.204V213.6H915.287ZM915.287 376V396H935.287V376H915.287ZM855.687 376H875.687V172.8H855.687H835.687V376H855.687ZM855.687 172.8L861.117 192.049C870.449 189.417 882.642 186.899 897.903 184.571L894.887 164.8L891.871 145.029C875.666 147.501 861.726 150.316 850.258 153.551L855.687 172.8ZM894.887 164.8L898.175 184.528C913.141 182.034 927.774 180.8 942.087 180.8V160.8V140.8C925.467 140.8 908.633 142.233 891.599 145.072L894.887 164.8ZM942.087 160.8V180.8C955.8 180.8 965.085 182.644 971.009 185.183L978.887 166.8L986.766 148.417C974.023 142.956 958.774 140.8 942.087 140.8V160.8ZM978.887 166.8L971.638 185.44C979.639 188.551 985.364 192.014 989.364 195.492L1002.49 180.4L1015.61 165.308C1007.34 158.119 997.336 152.515 986.136 148.16L978.887 166.8ZM1002.49 180.4L1014.25 196.575C1018.79 193.273 1023.6 190.614 1028.72 188.57L1021.29 170L1013.86 151.43C1005.64 154.719 997.917 158.994 990.724 164.225L1002.49 180.4ZM1021.29 170L1029.08 188.419C1034.92 185.948 1040.83 184.056 1046.83 182.724L1042.49 163.2L1038.15 143.676C1029.74 145.544 1021.52 148.185 1013.49 151.581L1021.29 170ZM1042.49 163.2L1046.83 182.724C1052.88 181.379 1058.07 180.8 1062.49 180.8V160.8V140.8C1054.64 140.8 1046.5 141.821 1038.15 143.676L1042.49 163.2ZM1062.49 160.8V180.8C1082.86 180.8 1095.43 184.634 1102.74 189.67L1114.09 173.2L1125.43 156.73C1108.74 145.233 1086.91 140.8 1062.49 140.8V160.8ZM1114.09 173.2L1103.16 189.952C1111.42 195.338 1117.02 202.676 1120.21 212.806L1139.29 206.8L1158.36 200.794C1152.49 182.124 1141.29 167.062 1125.01 156.448L1114.09 173.2ZM1139.29 206.8L1120.31 213.125C1124.28 225.027 1126.49 239.607 1126.49 257.2H1146.49H1166.49C1166.49 236.393 1163.89 217.373 1158.26 200.475L1139.29 206.8ZM1146.49 257.2H1126.49V376H1146.49H1166.49V257.2H1146.49ZM1146.49 376V356H1086.89V376V396H1146.49V376ZM1086.89 376H1106.89V264.4H1086.89H1066.89V376H1086.89ZM1086.89 264.4H1106.89C1106.89 250.734 1105.78 238.46 1102.97 228.281L1083.69 233.6L1064.41 238.919C1065.87 244.206 1066.89 252.466 1066.89 264.4H1086.89ZM1083.69 233.6L1102.97 228.281C1100.05 217.711 1094.61 207.527 1085 200.586L1073.29 216.8L1061.58 233.014C1061.63 233.053 1061.97 233.301 1062.48 234.127C1063.02 235.001 1063.74 236.503 1064.41 238.919L1083.69 233.6ZM1073.29 216.8L1085 200.586C1075.77 193.926 1064.84 191.6 1054.09 191.6V211.6V231.6C1059.34 231.6 1061.2 232.741 1061.58 233.014L1073.29 216.8ZM1054.09 211.6V191.6C1049.77 191.6 1045.29 192.365 1041.19 193.312L1045.69 212.8L1050.18 232.288C1051.5 231.984 1052.5 231.802 1053.22 231.699C1053.96 231.593 1054.21 231.6 1054.09 231.6V211.6ZM1045.69 212.8L1042.4 193.072C1037.69 193.856 1033.06 195.184 1028.51 196.933L1035.69 215.6L1042.87 234.267C1045.25 233.349 1047.28 232.81 1048.98 232.528L1045.69 212.8ZM1035.69 215.6L1028.51 196.933C1024.16 198.604 1020.02 200.554 1016.2 202.85L1026.49 220L1036.78 237.15C1038.28 236.246 1040.28 235.263 1042.87 234.267L1035.69 215.6ZM1026.49 220L1007.35 225.823C1008.76 230.448 1009.72 235.534 1010.15 241.134L1030.09 239.6L1050.03 238.066C1049.39 229.799 1047.95 221.818 1045.62 214.177L1026.49 220ZM1030.09 239.6L1010.15 241.195C1010.64 247.257 1010.89 253.919 1010.89 261.2H1030.89H1050.89C1050.89 253.014 1050.61 245.277 1050.02 238.005L1030.09 239.6ZM1030.89 261.2H1010.89V376H1030.89H1050.89V261.2H1030.89ZM1030.89 376V356H971.287V376V396H1030.89V376ZM971.287 376H991.287V264.4H971.287H951.287V376H971.287ZM971.287 264.4H991.287C991.287 250.734 990.175 238.46 987.367 228.281L968.087 233.6L948.808 238.919C950.266 244.206 951.287 252.466 951.287 264.4H971.287ZM968.087 233.6L987.367 228.281C984.451 217.711 979.008 207.527 969.397 200.586L957.687 216.8L945.978 233.014C946.032 233.053 946.37 233.301 946.882 234.127C947.423 235.001 948.141 236.503 948.808 238.919L968.087 233.6ZM957.687 216.8L969.397 200.586C960.175 193.926 949.239 191.6 938.487 191.6V211.6V231.6C943.736 231.6 945.6 232.741 945.978 233.014L957.687 216.8ZM938.487 211.6V191.6C935.351 191.6 932.15 191.774 928.897 192.099L930.887 212L932.877 231.901C934.958 231.693 936.823 231.6 938.487 231.6V211.6ZM930.887 212V192C927.553 192 924.222 192.167 920.897 192.499L922.887 212.4L924.878 232.301C926.886 232.1 928.889 232 930.887 232V212ZM922.887 212.4L920.679 192.522C917.638 192.86 914.529 193.355 911.365 193.988L915.287 213.6L919.21 233.212C921.379 232.778 923.337 232.473 925.096 232.278L922.887 212.4ZM915.287 213.6H895.287V376H915.287H935.287V213.6H915.287ZM915.287 376V356H855.687V376V396H915.287V376ZM1168.61 450H1148.61V470H1168.61V450ZM1168.61 172.8L1162.93 153.624L1148.61 157.866V172.8H1168.61ZM1193.81 166.8L1190.09 147.149L1190.04 147.158L1189.99 147.168L1193.81 166.8ZM1224.21 162.4L1222.22 142.499L1222.19 142.502L1222.17 142.504L1224.21 162.4ZM1313.81 174.4L1304.07 191.87L1304.18 191.931L1304.29 191.991L1313.81 174.4ZM1351.01 212.4L1333.24 221.573L1333.29 221.685L1333.35 221.797L1351.01 212.4ZM1353.41 328L1335.07 320.015L1335.04 320.086L1335.01 320.158L1353.41 328ZM1322.61 366.4L1333.7 383.041L1333.82 382.966L1333.93 382.89L1322.61 366.4ZM1249.01 377.6L1253.35 358.076V358.076L1249.01 377.6ZM1228.21 370.8L1236.26 352.494L1208.21 340.15V370.8H1228.21ZM1228.21 450V470H1248.21V450H1228.21ZM1279.41 326L1271.2 307.762L1271.02 307.842L1270.85 307.925L1279.41 326ZM1292.61 315.2L1276.82 302.921L1276.6 303.202L1276.4 303.49L1292.61 315.2ZM1300.61 297.6L1281.25 292.581L1281.18 292.841L1281.12 293.103L1300.61 297.6ZM1297.81 240.4L1279.32 248.015L1297.81 240.4ZM1281.41 219.2L1292.92 202.844V202.844L1281.41 219.2ZM1239.41 212.4L1240.58 232.365L1241.17 232.331L1241.75 232.263L1239.41 212.4ZM1228.21 213.6L1224.63 193.923L1208.21 196.908V213.6H1228.21ZM1228.21 321.2H1208.21V332.119L1217.39 338.024L1228.21 321.2ZM1242.61 327.2L1237.35 346.495L1237.45 346.524L1237.56 346.552L1242.61 327.2ZM1168.61 450H1188.61V172.8H1168.61H1148.61V450H1168.61ZM1168.61 172.8L1174.29 191.976C1180.73 190.069 1188.48 188.211 1197.63 186.432L1193.81 166.8L1189.99 147.168C1179.94 149.122 1170.89 151.264 1162.93 153.624L1168.61 172.8ZM1193.81 166.8L1197.53 186.451C1206.82 184.694 1216.39 183.307 1226.25 182.296L1224.21 162.4L1222.17 142.504C1211.23 143.626 1200.54 145.173 1190.09 147.149L1193.81 166.8ZM1224.21 162.4L1226.2 182.301C1236.28 181.293 1245.75 180.8 1254.61 180.8V160.8V140.8C1244.27 140.8 1233.47 141.374 1222.22 142.499L1224.21 162.4ZM1254.61 160.8V180.8C1275.23 180.8 1291.43 184.823 1304.07 191.87L1313.81 174.4L1323.55 156.93C1303.66 145.844 1280.39 140.8 1254.61 140.8V160.8ZM1313.81 174.4L1304.29 191.991C1317 198.866 1326.54 208.588 1333.24 221.573L1351.01 212.4L1368.78 203.227C1358.42 183.145 1343.15 167.534 1323.33 156.809L1313.81 174.4ZM1351.01 212.4L1333.35 221.797C1340.34 234.921 1344.21 251.038 1344.21 270.8H1364.21H1384.21C1384.21 245.762 1379.28 222.945 1368.66 203.003L1351.01 212.4ZM1364.21 270.8H1344.21C1344.21 290.186 1340.98 306.448 1335.07 320.015L1353.41 328L1371.75 335.985C1380.24 316.486 1384.21 294.614 1384.21 270.8H1364.21ZM1353.41 328L1335.01 320.158C1329.46 333.19 1321.53 342.884 1311.29 349.91L1322.61 366.4L1333.93 382.89C1350.89 371.25 1363.5 355.343 1371.81 335.842L1353.41 328ZM1322.61 366.4L1311.52 349.759C1301.87 356.189 1289.15 360 1272.21 360V380V400C1295.27 400 1316.15 394.745 1333.7 383.041L1322.61 366.4ZM1272.21 380V360C1265.23 360 1258.96 359.324 1253.35 358.076L1249.01 377.6L1244.67 397.124C1253.45 399.076 1262.66 400 1272.21 400V380ZM1249.01 377.6L1253.35 358.076C1247.41 356.756 1241.72 354.894 1236.26 352.494L1228.21 370.8L1220.15 389.106C1228.03 392.573 1236.21 395.244 1244.67 397.124L1249.01 377.6ZM1228.21 370.8H1208.21V450H1228.21H1248.21V370.8H1228.21ZM1228.21 450V430H1168.61V450V470H1228.21V450ZM1261.01 329.6V349.6C1270.36 349.6 1279.58 348.049 1287.97 344.075L1279.41 326L1270.85 307.925C1269.1 308.751 1266.06 309.6 1261.01 309.6V329.6ZM1279.41 326L1287.62 344.238C1296.19 340.382 1303.33 334.513 1308.82 326.91L1292.61 315.2L1276.4 303.49C1274.95 305.487 1273.3 306.818 1271.2 307.762L1279.41 326ZM1292.61 315.2L1308.4 327.479C1314.19 320.026 1317.95 311.384 1320.1 302.097L1300.61 297.6L1281.12 293.103C1280.06 297.682 1278.49 300.773 1276.82 302.921L1292.61 315.2ZM1300.61 297.6L1319.97 302.619C1322.36 293.386 1323.41 283.231 1323.41 272.4H1303.41H1283.41C1283.41 280.769 1282.59 287.414 1281.25 292.581L1300.61 297.6ZM1303.41 272.4H1323.41C1323.41 258.154 1321.25 244.791 1316.3 232.785L1297.81 240.4L1279.32 248.015C1281.84 254.143 1283.41 262.113 1283.41 272.4H1303.41ZM1297.81 240.4L1316.3 232.785C1311.29 220.613 1303.58 210.344 1292.92 202.844L1281.41 219.2L1269.9 235.556C1273.64 238.189 1276.86 242.054 1279.32 248.015L1297.81 240.4ZM1281.41 219.2L1292.92 202.844C1281.61 194.886 1268.26 191.6 1254.21 191.6V211.6V231.6C1262.03 231.6 1266.81 233.381 1269.9 235.556L1281.41 219.2ZM1254.21 211.6V191.6C1248.22 191.6 1242.5 191.899 1237.07 192.537L1239.41 212.4L1241.75 232.263C1245.39 231.835 1249.53 231.6 1254.21 231.6V211.6ZM1239.41 212.4L1238.23 192.435C1233.27 192.727 1228.66 193.191 1224.63 193.923L1228.21 213.6L1231.79 233.277C1233.63 232.942 1236.49 232.606 1240.58 232.365L1239.41 212.4ZM1228.21 213.6H1208.21V321.2H1228.21H1248.21V213.6H1228.21ZM1228.21 321.2L1217.39 338.024C1223.34 341.848 1230.19 344.543 1237.35 346.495L1242.61 327.2L1247.87 307.905C1243.3 306.657 1240.54 305.352 1239.02 304.376L1228.21 321.2ZM1242.61 327.2L1237.56 346.552C1245.29 348.568 1253.12 349.6 1261.01 349.6V329.6V309.6C1256.64 309.6 1252.2 309.032 1247.66 307.848L1242.61 327.2ZM1462.02 380L1461.55 399.995L1478.82 400.396L1481.73 383.366L1462.02 380ZM1409.22 370.4L1400.43 388.368L1400.51 388.406L1400.59 388.443L1409.22 370.4ZM1384.42 345.6L1365.78 352.871L1365.89 353.148L1366.01 353.423L1384.42 345.6ZM1378.02 75.2L1374.84 55.4545L1358.02 58.1637V75.2H1378.02ZM1437.62 65.6H1457.62V42.1207L1434.44 45.8545L1437.62 65.6ZM1443.22 320L1426.13 330.399L1426.29 330.665L1426.46 330.925L1443.22 320ZM1470.42 330.8L1490.13 334.166L1493.83 312.51L1471.92 310.857L1470.42 330.8ZM1462.02 380L1462.48 360.005C1440.69 359.499 1426.38 356.441 1417.84 352.357L1409.22 370.4L1400.59 388.443C1416.58 396.093 1437.47 399.435 1461.55 399.995L1462.02 380ZM1409.22 370.4L1418 352.432C1409.62 348.337 1405.19 343.347 1402.82 337.777L1384.42 345.6L1366.01 353.423C1372.71 369.186 1384.81 380.729 1400.43 388.368L1409.22 370.4ZM1384.42 345.6L1403.05 338.329C1399.89 330.249 1398.02 319.894 1398.02 306.8H1378.02H1358.02C1358.02 323.572 1360.4 339.084 1365.78 352.871L1384.42 345.6ZM1378.02 306.8H1398.02V75.2H1378.02H1358.02V306.8H1378.02ZM1378.02 75.2L1381.2 94.9455L1440.8 85.3455L1437.62 65.6L1434.44 45.8545L1374.84 55.4545L1378.02 75.2ZM1437.62 65.6H1417.62V294.8H1437.62H1457.62V65.6H1437.62ZM1437.62 294.8H1417.62C1417.62 307.472 1419.78 319.965 1426.13 330.399L1443.22 320L1460.3 309.601C1459.18 307.769 1457.62 303.461 1457.62 294.8H1437.62ZM1443.22 320L1426.46 330.925C1435.99 345.535 1453.91 349.611 1468.91 350.743L1470.42 330.8L1471.92 310.857C1466.04 310.413 1462.41 309.511 1460.4 308.712C1458.44 307.937 1459.07 307.697 1459.97 309.075L1443.22 320ZM1470.42 330.8L1450.7 327.434L1442.3 376.634L1462.02 380L1481.73 383.366L1490.13 334.166L1470.42 330.8Z" fill="black" mask="url(#path-4-outside-1_3381_38)"/>
<path d="M490 376V172.8C500.133 169.867 513.2 167.2 529.2 164.8C545.2 162.133 562 160.8 579.6 160.8C603.6 160.8 622.267 164.933 635.6 173.2C648.933 181.2 658.267 192.4 663.6 206.8C668.933 221.2 671.6 238 671.6 257.2V376H612V264.4C612 251.6 610.933 241.333 608.8 233.6C606.667 225.867 602.933 220.267 597.6 216.8C592.533 213.333 585.333 211.6 576 211.6C571.733 211.6 567.2 211.867 562.4 212.4C557.6 212.667 553.333 213.067 549.6 213.6V376H490Z" fill="white"/>
<path d="M753.547 381.6C734.88 381.6 719.28 380 706.747 376.8C694.48 373.6 685.947 370.933 681.147 368.8L691.147 320.4C701.28 324.4 711.68 327.6 722.347 330C733.013 332.133 743.547 333.2 753.947 333.2C764.88 333.2 772.613 332.133 777.147 330C781.68 327.867 783.947 323.733 783.947 317.6C783.947 314.4 782.613 311.6 779.947 309.2C777.28 306.533 773.28 303.867 767.947 301.2C762.88 298.533 756.347 295.733 748.347 292.8C736.08 288 725.28 282.933 715.947 277.6C706.613 272.267 699.413 265.467 694.347 257.2C689.28 248.667 686.747 237.6 686.747 224C686.747 210.667 690.08 199.333 696.747 190C703.413 180.4 712.88 173.067 725.147 168C737.413 162.667 752.08 160 769.147 160C781.947 160 794.213 161.2 805.947 163.6C817.68 165.733 827.013 168.133 833.947 170.8L823.547 217.2C816.613 214.8 809.013 212.667 800.747 210.8C792.747 208.933 783.68 208 773.547 208C764.213 208 757.147 209.333 752.347 212C747.813 214.4 745.547 218.267 745.547 223.6C745.547 226.533 746.347 229.333 747.947 232C749.547 234.4 752.613 236.8 757.147 239.2C761.68 241.6 768.347 244.4 777.147 247.6C794.747 254 808.213 260.4 817.547 266.8C827.147 273.2 833.813 280.533 837.547 288.8C841.28 296.8 843.147 306.667 843.147 318.4C843.147 332.267 839.68 343.867 832.747 353.2C825.813 362.533 815.68 369.6 802.347 374.4C789.013 379.2 772.747 381.6 753.547 381.6ZM855.687 376V172.8C866.087 169.867 879.154 167.2 894.887 164.8C910.887 162.133 926.621 160.8 942.087 160.8C957.287 160.8 969.554 162.8 978.887 166.8C988.487 170.533 996.354 175.067 1002.49 180.4C1008.35 176.133 1014.62 172.667 1021.29 170C1028.22 167.067 1035.29 164.8 1042.49 163.2C1049.69 161.6 1056.35 160.8 1062.49 160.8C1084.89 160.8 1102.09 164.933 1114.09 173.2C1126.35 181.2 1134.75 192.4 1139.29 206.8C1144.09 221.2 1146.49 238 1146.49 257.2V376H1086.89V264.4C1086.89 251.6 1085.82 241.333 1083.69 233.6C1081.55 225.867 1078.09 220.267 1073.29 216.8C1068.49 213.333 1062.09 211.6 1054.09 211.6C1051.95 211.6 1049.15 212 1045.69 212.8C1042.49 213.333 1039.15 214.267 1035.69 215.6C1032.22 216.933 1029.15 218.4 1026.49 220C1028.35 226.133 1029.55 232.667 1030.09 239.6C1030.62 246.267 1030.89 253.467 1030.89 261.2V376H971.287V264.4C971.287 251.6 970.221 241.333 968.087 233.6C965.954 225.867 962.487 220.267 957.687 216.8C952.887 213.333 946.487 211.6 938.487 211.6C936.087 211.6 933.554 211.733 930.887 212C928.221 212 925.554 212.133 922.887 212.4C920.487 212.667 917.954 213.067 915.287 213.6V376H855.687ZM1168.61 450V172.8C1175.81 170.667 1184.21 168.667 1193.81 166.8C1203.68 164.933 1213.81 163.467 1224.21 162.4C1234.88 161.333 1245.01 160.8 1254.61 160.8C1277.81 160.8 1297.54 165.333 1313.81 174.4C1330.08 183.2 1342.48 195.867 1351.01 212.4C1359.81 228.933 1364.21 248.4 1364.21 270.8C1364.21 292.4 1360.61 311.467 1353.41 328C1346.48 344.267 1336.21 357.067 1322.61 366.4C1309.01 375.467 1292.21 380 1272.21 380C1263.94 380 1256.21 379.2 1249.01 377.6C1241.81 376 1234.88 373.733 1228.21 370.8V450H1168.61ZM1261.01 329.6C1268.21 329.6 1274.34 328.4 1279.41 326C1284.74 323.6 1289.14 320 1292.61 315.2C1296.34 310.4 1299.01 304.533 1300.61 297.6C1302.48 290.4 1303.41 282 1303.41 272.4C1303.41 260.133 1301.54 249.467 1297.81 240.4C1294.08 231.333 1288.61 224.267 1281.41 219.2C1274.21 214.133 1265.14 211.6 1254.21 211.6C1248.88 211.6 1243.94 211.867 1239.41 212.4C1234.88 212.667 1231.14 213.067 1228.21 213.6V321.2C1231.94 323.6 1236.74 325.6 1242.61 327.2C1248.74 328.8 1254.88 329.6 1261.01 329.6ZM1462.02 380C1439.08 379.467 1421.48 376.267 1409.22 370.4C1397.22 364.533 1388.95 356.267 1384.42 345.6C1380.15 334.667 1378.02 321.733 1378.02 306.8V75.2L1437.62 65.6V294.8C1437.62 305.467 1439.48 313.867 1443.22 320C1447.22 326.133 1456.28 329.733 1470.42 330.8L1462.02 380Z" fill="#8AFF80"/>
</svg>
